<svg xmlns="http://www.w3.org/2000/svg" width="375" viewBox="0 0 375 375" height="375" version="1.0"><defs><clipPath id="a"><path d="M 0 313 L 375 313 L 375 315.75 L 0 315.75 Z M 0 313"/></clipPath><clipPath id="b"><path d="M 109 37.5 L 138 37.5 L 138 65 L 109 65 Z M 109 37.5"/></clipPath><clipPath id="c"><path d="M 142 37.5 L 171 37.5 L 171 65 L 142 65 Z M 142 37.5"/></clipPath><clipPath id="d"><path d="M 175 37.5 L 204 37.5 L 204 65 L 175 65 Z M 175 37.5"/></clipPath><clipPath id="e"><path d="M 208 37.5 L 237 37.5 L 237 65 L 208 65 Z M 208 37.5"/></clipPath><clipPath id="f"><path d="M 241 37.5 L 270 37.5 L 270 65 L 241 65 Z M 241 37.5"/></clipPath><clipPath id="g"><path d="M 109 77 L 270 77 L 270 315.75 L 109 315.75 Z M 109 77"/></clipPath><clipPath id="h"><path d="M 161 244 L 218 244 L 218 315.75 L 161 315.75 Z M 161 244"/></clipPath><clipPath id="i"><path d="M 188 244 L 191 244 L 191 315.75 L 188 315.75 Z M 188 244"/></clipPath><clipPath id="j"><path d="M 258 293 L 273 293 L 273 315.75 L 258 315.75 Z M 258 293"/></clipPath><clipPath id="k"><path d="M 323 293 L 338 293 L 338 315.75 L 323 315.75 Z M 323 293"/></clipPath><clipPath id="l"><path d="M 73 261 L 123 261 L 123 315.75 L 73 315.75 Z M 73 261"/></clipPath></defs><g clip-path="url(#a)"><path fill="#00ADEF" d="M 1.214844 315.78125 L 373.78125 315.78125 C 374.324219 315.78125 374.769531 315.339844 374.769531 314.789062 C 374.769531 314.246094 374.324219 313.800781 373.78125 313.800781 L 1.214844 313.800781 C 0.667969 313.800781 0.222656 314.246094 0.222656 314.789062 C 0.222656 315.339844 0.667969 315.78125 1.214844 315.78125"/></g><path fill="#FBBF09" d="M 60.601562 110.5 L 57.722656 110.5 L 57.722656 102.742188 L 60.601562 102.742188 L 60.601562 110.5"/><path fill="#F68313" d="M 60.601562 110.5 L 60.601562 109.5625 L 58.664062 109.5625 L 58.664062 103.679688 L 59.664062 103.679688 L 59.664062 110.5 L 60.601562 110.5 L 60.601562 109.5625 L 60.601562 110.5 L 61.542969 110.5 L 61.542969 102.742188 C 61.542969 102.492188 61.445312 102.25 61.269531 102.078125 C 61.09375 101.902344 60.847656 101.800781 60.601562 101.800781 L 57.722656 101.800781 C 57.476562 101.800781 57.234375 101.902344 57.058594 102.078125 C 56.882812 102.25 56.785156 102.492188 56.785156 102.742188 L 56.785156 110.5 C 56.785156 110.746094 56.882812 110.988281 57.058594 111.164062 C 57.234375 111.339844 57.476562 111.4375 57.722656 111.4375 L 60.601562 111.4375 C 60.847656 111.4375 61.09375 111.339844 61.269531 111.164062 C 61.445312 110.988281 61.542969 110.746094 61.542969 110.5 L 60.601562 110.5"/><path fill="#FBBF09" d="M 66.101562 103.523438 L 52.222656 103.523438 L 52.222656 100.703125 L 66.101562 100.703125 L 66.101562 103.523438"/><path fill="#F68313" d="M 66.101562 103.523438 L 66.101562 102.585938 L 53.160156 102.585938 L 53.160156 101.644531 L 65.164062 101.644531 L 65.164062 103.523438 L 66.101562 103.523438 L 66.101562 102.585938 L 66.101562 103.523438 L 67.039062 103.523438 L 67.039062 100.703125 C 67.039062 100.457031 66.941406 100.214844 66.765625 100.042969 C 66.589844 99.867188 66.347656 99.765625 66.101562 99.765625 L 52.222656 99.765625 C 51.976562 99.765625 51.734375 99.867188 51.558594 100.042969 C 51.382812 100.214844 51.285156 100.457031 51.285156 100.703125 L 51.285156 103.523438 C 51.285156 103.769531 51.382812 104.011719 51.558594 104.1875 C 51.734375 104.359375 51.976562 104.460938 52.222656 104.460938 L 66.101562 104.460938 C 66.347656 104.460938 66.589844 104.359375 66.765625 104.1875 C 66.941406 104.011719 67.039062 103.769531 67.039062 103.523438 L 66.101562 103.523438"/><path fill="#FBBF09" d="M 79.742188 128.714844 C 79.554688 117.515625 70.414062 108.496094 59.160156 108.496094 C 47.910156 108.496094 38.773438 117.515625 38.585938 128.714844 L 79.742188 128.714844"/><path fill="#F68313" d="M 79.742188 128.714844 L 80.675781 128.699219 C 80.480469 116.992188 70.925781 107.558594 59.160156 107.558594 C 47.398438 107.558594 37.847656 116.992188 37.644531 128.699219 C 37.640625 128.949219 37.742188 129.195312 37.917969 129.375 C 38.09375 129.554688 38.335938 129.652344 38.585938 129.652344 L 79.742188 129.652344 C 79.992188 129.652344 80.230469 129.554688 80.40625 129.375 C 80.585938 129.195312 80.679688 128.949219 80.675781 128.699219 L 79.742188 128.714844 L 79.742188 127.777344 L 38.585938 127.777344 L 38.585938 128.714844 L 39.523438 128.730469 C 39.707031 118.042969 48.425781 109.433594 59.160156 109.433594 C 69.902344 109.433594 78.621094 118.042969 78.800781 128.730469 L 79.742188 128.714844 L 79.742188 127.777344 L 79.742188 128.714844"/><path fill="#00ADEF" d="M 71.472656 94.011719 C 68.074219 90.617188 63.613281 88.910156 59.160156 88.914062 C 54.710938 88.910156 50.25 90.617188 46.851562 94.011719 C 46.488281 94.378906 46.488281 94.972656 46.851562 95.339844 C 47.21875 95.707031 47.816406 95.707031 48.179688 95.339844 C 51.222656 92.304688 55.183594 90.792969 59.160156 90.792969 C 63.136719 90.792969 67.105469 92.304688 70.140625 95.339844 C 70.507812 95.707031 71.105469 95.707031 71.472656 95.339844 C 71.835938 94.972656 71.835938 94.378906 71.472656 94.011719"/><path fill="#00ADEF" d="M 75.820312 88.359375 C 71.222656 83.761719 65.1875 81.457031 59.160156 81.457031 C 53.136719 81.457031 47.101562 83.761719 42.5 88.359375 C 42.136719 88.726562 42.136719 89.324219 42.5 89.6875 C 42.867188 90.054688 43.464844 90.054688 43.828125 89.6875 C 48.070312 85.453125 53.609375 83.339844 59.160156 83.339844 C 64.710938 83.339844 70.253906 85.453125 74.492188 89.6875 C 74.859375 90.054688 75.457031 90.054688 75.820312 89.6875 C 76.1875 89.324219 76.1875 88.726562 75.820312 88.359375"/><path fill="#00ADEF" d="M 81 82.574219 C 74.96875 76.542969 67.0625 73.527344 59.160156 73.527344 C 51.261719 73.527344 43.359375 76.546875 37.324219 82.574219 C 36.960938 82.9375 36.960938 83.535156 37.324219 83.898438 C 37.691406 84.265625 38.289062 84.265625 38.652344 83.898438 C 44.324219 78.234375 51.742188 75.40625 59.160156 75.402344 C 66.585938 75.40625 74.003906 78.234375 79.667969 83.898438 C 80.035156 84.265625 80.632812 84.265625 81 83.898438 C 81.363281 83.535156 81.363281 82.9375 81 82.574219"/><path fill="#F7980F" d="M 86.3125 137.609375 L 86.3125 134.015625 C 86.3125 131.089844 83.9375 128.714844 81.007812 128.714844 L 37.316406 128.714844 C 34.390625 128.714844 32.011719 131.089844 32.011719 134.015625 L 32.011719 137.609375 L 86.3125 137.609375"/><path fill="#F47216" d="M 86.3125 137.609375 L 87.253906 137.609375 L 87.253906 134.015625 C 87.253906 130.570312 84.453125 127.777344 81.007812 127.777344 L 37.316406 127.777344 C 33.871094 127.777344 31.074219 130.570312 31.074219 134.015625 L 31.074219 137.609375 C 31.074219 137.855469 31.175781 138.101562 31.351562 138.269531 C 31.523438 138.445312 31.765625 138.550781 32.011719 138.550781 L 86.3125 138.550781 C 86.558594 138.550781 86.804688 138.445312 86.976562 138.269531 C 87.152344 138.101562 87.253906 137.855469 87.253906 137.609375 L 86.3125 137.609375 L 86.3125 136.671875 L 32.953125 136.671875 L 32.953125 134.015625 C 32.953125 132.808594 33.441406 131.722656 34.230469 130.929688 C 35.023438 130.140625 36.109375 129.652344 37.316406 129.652344 L 81.007812 129.652344 C 82.21875 129.652344 83.300781 130.140625 84.097656 130.929688 C 84.886719 131.722656 85.375 132.808594 85.375 134.015625 L 85.375 137.609375 L 86.3125 137.609375 L 86.3125 136.671875 L 86.3125 137.609375"/><path fill="#C2660E" d="M 122.464844 52.558594 L 122.464844 77.800781 C 122.464844 78.316406 122.882812 78.734375 123.402344 78.734375 C 123.921875 78.734375 124.339844 78.316406 124.339844 77.800781 L 124.339844 52.558594 C 124.339844 52.039062 123.921875 51.617188 123.402344 51.617188 C 122.882812 51.617188 122.464844 52.039062 122.464844 52.558594"/><path fill="#C2660E" d="M 155.449219 52.558594 L 155.449219 77.800781 C 155.449219 78.316406 155.871094 78.734375 156.390625 78.734375 C 156.910156 78.734375 157.328125 78.316406 157.328125 77.800781 L 157.328125 52.558594 C 157.328125 52.039062 156.910156 51.617188 156.390625 51.617188 C 155.871094 51.617188 155.449219 52.039062 155.449219 52.558594"/><path fill="#C2660E" d="M 188.441406 52.558594 L 188.441406 77.800781 C 188.441406 78.316406 188.863281 78.734375 189.378906 78.734375 C 189.898438 78.734375 190.320312 78.316406 190.320312 77.800781 L 190.320312 52.558594 C 190.320312 52.039062 189.898438 51.617188 189.378906 51.617188 C 188.863281 51.617188 188.441406 52.039062 188.441406 52.558594"/><path fill="#C2660E" d="M 221.429688 52.558594 L 221.429688 77.800781 C 221.429688 78.316406 221.851562 78.734375 222.371094 78.734375 C 222.886719 78.734375 223.308594 78.316406 223.308594 77.800781 L 223.308594 52.558594 C 223.308594 52.039062 222.886719 51.617188 222.371094 51.617188 C 221.851562 51.617188 221.429688 52.039062 221.429688 52.558594"/><path fill="#C2660E" d="M 254.421875 52.558594 L 254.421875 77.800781 C 254.421875 78.316406 254.84375 78.734375 255.359375 78.734375 C 255.878906 78.734375 256.300781 78.316406 256.300781 77.800781 L 256.300781 52.558594 C 256.300781 52.039062 255.878906 51.617188 255.359375 51.617188 C 254.84375 51.617188 254.421875 52.039062 254.421875 52.558594"/><path fill="#FBBF09" d="M 123.402344 38.480469 L 127.421875 46.628906 L 136.417969 47.929688 L 129.910156 54.273438 L 131.445312 63.222656 L 123.402344 58.996094 L 115.355469 63.222656 L 116.890625 54.273438 L 110.382812 47.929688 L 119.378906 46.628906 L 123.402344 38.480469"/><g clip-path="url(#b)"><path fill="#F68313" d="M 123.402344 38.480469 L 122.558594 38.898438 L 126.582031 47.039062 C 126.71875 47.320312 126.984375 47.511719 127.289062 47.554688 L 134.402344 48.589844 L 129.253906 53.597656 C 129.035156 53.816406 128.929688 54.125 128.984375 54.429688 L 130.199219 61.507812 L 123.835938 58.167969 C 123.5625 58.023438 123.234375 58.023438 122.964844 58.167969 L 116.605469 61.507812 L 117.816406 54.429688 C 117.871094 54.125 117.765625 53.816406 117.550781 53.597656 L 112.402344 48.589844 L 119.515625 47.554688 C 119.820312 47.511719 120.085938 47.316406 120.222656 47.039062 L 124.242188 38.898438 L 123.402344 38.480469 L 122.558594 38.898438 L 123.402344 38.480469 L 122.558594 38.0625 L 118.757812 45.765625 L 110.25 47.003906 C 109.898438 47.050781 109.601562 47.300781 109.492188 47.644531 C 109.378906 47.980469 109.476562 48.355469 109.730469 48.605469 L 115.882812 54.597656 L 114.429688 63.066406 C 114.367188 63.414062 114.519531 63.773438 114.804688 63.980469 C 115.09375 64.191406 115.476562 64.21875 115.792969 64.050781 L 123.402344 60.054688 L 131.007812 64.050781 C 131.324219 64.21875 131.710938 64.191406 132 63.980469 C 132.285156 63.773438 132.433594 63.414062 132.375 63.066406 L 130.921875 54.597656 L 137.074219 48.605469 C 137.328125 48.355469 137.421875 47.980469 137.3125 47.644531 C 137.199219 47.300781 136.910156 47.050781 136.554688 47.003906 L 128.046875 45.765625 L 124.242188 38.0625 C 124.082031 37.746094 123.757812 37.542969 123.402344 37.542969 C 123.042969 37.542969 122.71875 37.746094 122.558594 38.0625 L 123.402344 38.480469"/></g><path fill="#FBBF09" d="M 156.390625 38.480469 L 160.414062 46.628906 L 169.410156 47.929688 L 162.902344 54.273438 L 164.4375 63.222656 L 156.390625 58.996094 L 148.347656 63.222656 L 149.882812 54.273438 L 143.371094 47.929688 L 152.371094 46.628906 L 156.390625 38.480469"/><g clip-path="url(#c)"><path fill="#F68313" d="M 156.390625 38.480469 L 155.550781 38.898438 L 159.574219 47.039062 C 159.707031 47.320312 159.972656 47.511719 160.28125 47.554688 L 167.390625 48.589844 L 162.242188 53.597656 C 162.023438 53.816406 161.921875 54.125 161.972656 54.429688 L 163.1875 61.507812 L 156.828125 58.167969 C 156.554688 58.023438 156.226562 58.023438 155.953125 58.167969 L 149.59375 61.507812 L 150.808594 54.429688 C 150.859375 54.125 150.757812 53.816406 150.539062 53.597656 L 145.390625 48.589844 L 152.503906 47.554688 C 152.808594 47.511719 153.074219 47.316406 153.210938 47.039062 L 157.234375 38.898438 L 156.390625 38.480469 L 155.550781 38.898438 L 156.390625 38.480469 L 155.550781 38.0625 L 151.746094 45.765625 L 143.238281 47.003906 C 142.882812 47.050781 142.59375 47.300781 142.480469 47.644531 C 142.371094 47.980469 142.464844 48.355469 142.71875 48.605469 L 148.871094 54.597656 L 147.417969 63.066406 C 147.359375 63.414062 147.507812 63.773438 147.792969 63.980469 C 148.082031 64.191406 148.46875 64.21875 148.78125 64.050781 L 156.390625 60.054688 L 164 64.050781 C 164.316406 64.21875 164.699219 64.191406 164.988281 63.980469 C 165.277344 63.773438 165.425781 63.414062 165.363281 63.066406 L 163.910156 54.597656 L 170.0625 48.605469 C 170.316406 48.355469 170.410156 47.980469 170.300781 47.644531 C 170.1875 47.300781 169.894531 47.050781 169.542969 47.003906 L 161.039062 45.765625 L 157.234375 38.0625 C 157.074219 37.746094 156.746094 37.542969 156.390625 37.542969 C 156.035156 37.542969 155.707031 37.746094 155.550781 38.0625 L 156.390625 38.480469"/></g><path fill="#FBBF09" d="M 189.378906 38.480469 L 193.402344 46.628906 L 202.394531 47.929688 L 195.886719 54.273438 L 197.425781 63.222656 L 189.378906 58.996094 L 181.335938 63.222656 L 182.871094 54.273438 L 176.363281 47.929688 L 185.355469 46.628906 L 189.378906 38.480469"/><g clip-path="url(#d)"><path fill="#F68313" d="M 189.378906 38.480469 L 188.539062 38.898438 L 192.5625 47.039062 C 192.699219 47.316406 192.964844 47.511719 193.269531 47.554688 L 200.375 48.589844 L 195.234375 53.597656 C 195.011719 53.816406 194.914062 54.125 194.964844 54.429688 L 196.179688 61.507812 L 189.816406 58.167969 C 189.546875 58.023438 189.21875 58.023438 188.941406 58.167969 L 182.582031 61.507812 L 183.796875 54.429688 C 183.851562 54.125 183.746094 53.816406 183.523438 53.597656 L 178.382812 48.589844 L 185.496094 47.554688 C 185.796875 47.511719 186.066406 47.316406 186.203125 47.039062 L 190.222656 38.898438 L 189.378906 38.480469 L 188.539062 38.898438 L 189.378906 38.480469 L 188.539062 38.0625 L 184.738281 45.765625 L 176.230469 47.003906 C 175.875 47.050781 175.578125 47.300781 175.472656 47.644531 C 175.359375 47.980469 175.457031 48.355469 175.710938 48.605469 L 181.863281 54.597656 L 180.410156 63.066406 C 180.347656 63.414062 180.492188 63.773438 180.785156 63.980469 C 181.074219 64.191406 181.457031 64.21875 181.773438 64.050781 L 189.378906 60.054688 L 196.988281 64.050781 C 197.304688 64.21875 197.6875 64.191406 197.976562 63.980469 C 198.265625 63.773438 198.410156 63.414062 198.347656 63.066406 L 196.894531 54.597656 L 203.054688 48.605469 C 203.308594 48.355469 203.398438 47.980469 203.289062 47.644531 C 203.179688 47.300781 202.882812 47.050781 202.53125 47.003906 L 194.027344 45.765625 L 190.222656 38.0625 C 190.066406 37.746094 189.738281 37.542969 189.378906 37.542969 C 189.027344 37.542969 188.695312 37.746094 188.539062 38.0625 L 189.378906 38.480469"/></g><path fill="#FBBF09" d="M 222.371094 38.480469 L 226.394531 46.628906 L 235.386719 47.929688 L 228.878906 54.273438 L 230.417969 63.222656 L 222.371094 58.996094 L 214.328125 63.222656 L 215.859375 54.273438 L 209.355469 47.929688 L 218.347656 46.628906 L 222.371094 38.480469"/><g clip-path="url(#e)"><path fill="#F68313" d="M 222.371094 38.480469 L 221.527344 38.898438 L 225.550781 47.039062 C 225.6875 47.316406 225.953125 47.511719 226.257812 47.554688 L 233.367188 48.589844 L 228.226562 53.597656 C 228.003906 53.816406 227.902344 54.125 227.957031 54.429688 L 229.167969 61.507812 L 222.808594 58.167969 C 222.535156 58.023438 222.203125 58.023438 221.933594 58.167969 L 215.570312 61.507812 L 216.789062 54.429688 C 216.835938 54.125 216.738281 53.816406 216.515625 53.597656 L 211.371094 48.589844 L 218.480469 47.554688 C 218.785156 47.511719 219.050781 47.316406 219.191406 47.039062 L 223.210938 38.898438 L 222.371094 38.480469 L 221.527344 38.898438 L 222.371094 38.480469 L 221.527344 38.0625 L 217.722656 45.765625 L 209.21875 47.003906 C 208.867188 47.050781 208.570312 47.300781 208.460938 47.644531 C 208.351562 47.980469 208.441406 48.355469 208.695312 48.605469 L 214.851562 54.597656 L 213.402344 63.066406 C 213.339844 63.414062 213.484375 63.773438 213.773438 63.980469 C 214.0625 64.191406 214.445312 64.21875 214.761719 64.050781 L 222.371094 60.054688 L 229.980469 64.050781 C 230.296875 64.21875 230.679688 64.191406 230.964844 63.980469 C 231.257812 63.773438 231.398438 63.414062 231.339844 63.066406 L 229.886719 54.597656 L 236.042969 48.605469 C 236.300781 48.355469 236.390625 47.980469 236.277344 47.644531 C 236.171875 47.300781 235.875 47.050781 235.519531 47.003906 L 227.019531 45.765625 L 223.210938 38.0625 C 223.054688 37.746094 222.726562 37.542969 222.371094 37.542969 C 222.011719 37.542969 221.683594 37.746094 221.527344 38.0625 L 222.371094 38.480469"/></g><path fill="#FBBF09" d="M 255.359375 38.480469 L 259.382812 46.628906 L 268.375 47.929688 L 261.867188 54.273438 L 263.402344 63.222656 L 255.359375 58.996094 L 247.3125 63.222656 L 248.851562 54.273438 L 242.34375 47.929688 L 251.335938 46.628906 L 255.359375 38.480469"/><g clip-path="url(#f)"><path fill="#F68313" d="M 255.359375 38.480469 L 254.519531 38.898438 L 258.539062 47.039062 C 258.675781 47.316406 258.945312 47.511719 259.246094 47.554688 L 266.355469 48.589844 L 261.214844 53.597656 C 260.992188 53.816406 260.886719 54.125 260.941406 54.429688 L 262.160156 61.507812 L 255.796875 58.167969 C 255.523438 58.023438 255.195312 58.023438 254.921875 58.167969 L 248.5625 61.507812 L 249.777344 54.429688 C 249.828125 54.125 249.730469 53.816406 249.507812 53.597656 L 244.363281 48.589844 L 251.472656 47.554688 C 251.777344 47.511719 252.042969 47.316406 252.175781 47.039062 L 256.203125 38.898438 L 255.359375 38.480469 L 254.519531 38.898438 L 255.359375 38.480469 L 254.519531 38.0625 L 250.710938 45.765625 L 242.207031 47.003906 C 241.855469 47.050781 241.558594 47.300781 241.449219 47.644531 C 241.339844 47.980469 241.429688 48.355469 241.6875 48.605469 L 247.84375 54.597656 L 246.390625 63.066406 C 246.328125 63.414062 246.472656 63.773438 246.765625 63.980469 C 247.050781 64.191406 247.433594 64.21875 247.75 64.050781 L 255.359375 60.054688 L 262.964844 64.050781 C 263.28125 64.21875 263.671875 64.191406 263.957031 63.980469 C 264.246094 63.773438 264.390625 63.414062 264.332031 63.066406 L 262.878906 54.597656 L 269.035156 48.605469 C 269.289062 48.355469 269.378906 47.980469 269.269531 47.644531 C 269.160156 47.300781 268.863281 47.050781 268.511719 47.003906 L 260.007812 45.765625 L 256.203125 38.0625 C 256.046875 37.746094 255.71875 37.542969 255.359375 37.542969 C 255.003906 37.542969 254.675781 37.746094 254.519531 38.0625 L 255.359375 38.480469"/></g><path fill="#99DEF9" d="M 268.222656 314.789062 L 110.539062 314.789062 L 110.539062 77.953125 L 268.222656 77.953125 L 268.222656 314.789062"/><g clip-path="url(#g)"><path fill="#00ADEF" d="M 268.222656 314.789062 L 268.222656 313.855469 L 111.480469 313.855469 L 111.480469 78.890625 L 267.285156 78.890625 L 267.285156 314.789062 L 268.222656 314.789062 L 268.222656 313.855469 L 268.222656 314.789062 L 269.164062 314.789062 L 269.164062 77.953125 C 269.164062 77.703125 269.0625 77.460938 268.886719 77.289062 C 268.710938 77.113281 268.472656 77.011719 268.222656 77.011719 L 110.539062 77.011719 C 110.292969 77.011719 110.050781 77.113281 109.875 77.289062 C 109.699219 77.460938 109.601562 77.703125 109.601562 77.953125 L 109.601562 314.789062 C 109.601562 315.039062 109.699219 315.28125 109.875 315.457031 C 110.050781 315.632812 110.292969 315.730469 110.539062 315.730469 L 268.222656 315.730469 C 268.472656 315.730469 268.710938 315.632812 268.886719 315.457031 C 269.0625 315.277344 269.164062 315.039062 269.164062 314.789062 L 268.222656 314.789062"/></g><path fill="#33BDF2" d="M 274.941406 85.144531 L 103.820312 85.144531 L 103.820312 70.757812 L 274.941406 70.757812 L 274.941406 85.144531"/><path fill="#00ADEF" d="M 274.941406 85.144531 L 274.941406 84.207031 L 104.757812 84.207031 L 104.757812 71.699219 L 274 71.699219 L 274 85.144531 L 274.941406 85.144531 L 274.941406 84.207031 L 274.941406 85.144531 L 275.878906 85.144531 L 275.878906 70.757812 C 275.878906 70.511719 275.777344 70.273438 275.605469 70.097656 C 275.429688 69.921875 275.1875 69.824219 274.941406 69.824219 L 103.820312 69.824219 C 103.570312 69.824219 103.328125 69.921875 103.15625 70.097656 C 102.980469 70.273438 102.878906 70.511719 102.878906 70.757812 L 102.878906 85.144531 C 102.878906 85.390625 102.980469 85.636719 103.15625 85.804688 C 103.328125 85.980469 103.570312 86.085938 103.820312 86.085938 L 274.941406 86.085938 C 275.1875 86.085938 275.429688 85.980469 275.605469 85.804688 C 275.777344 85.636719 275.878906 85.390625 275.878906 85.144531 L 274.941406 85.144531"/><path fill="#33BDF2" d="M 274.941406 203.566406 L 103.820312 203.566406 L 103.820312 189.179688 L 274.941406 189.179688 L 274.941406 203.566406"/><path fill="#00ADEF" d="M 274.941406 203.566406 L 274.941406 202.625 L 104.757812 202.625 L 104.757812 190.117188 L 274 190.117188 L 274 203.566406 L 274.941406 203.566406 L 274.941406 202.625 L 274.941406 203.566406 L 275.878906 203.566406 L 275.878906 189.179688 C 275.878906 188.933594 275.777344 188.6875 275.605469 188.511719 C 275.429688 188.339844 275.1875 188.238281 274.941406 188.238281 L 103.820312 188.238281 C 103.570312 188.238281 103.328125 188.339844 103.15625 188.511719 C 102.980469 188.6875 102.878906 188.933594 102.878906 189.179688 L 102.878906 203.566406 C 102.878906 203.808594 102.980469 204.050781 103.15625 204.226562 C 103.328125 204.402344 103.570312 204.5 103.820312 204.5 L 274.941406 204.5 C 275.1875 204.5 275.429688 204.402344 275.605469 204.226562 C 275.777344 204.050781 275.878906 203.808594 275.878906 203.566406 L 274.941406 203.566406"/><path fill="#FFF" d="M 142.917969 132.460938 L 122.808594 132.460938 L 122.808594 94.949219 L 142.917969 94.949219 L 142.917969 132.460938"/><path fill="#00ADEF" d="M 142.917969 132.460938 L 142.917969 131.527344 L 123.75 131.527344 L 123.75 95.882812 L 141.980469 95.882812 L 141.980469 132.460938 L 142.917969 132.460938 L 142.917969 131.527344 L 142.917969 132.460938 L 143.859375 132.460938 L 143.859375 94.949219 C 143.859375 94.699219 143.757812 94.457031 143.582031 94.28125 C 143.410156 94.109375 143.167969 94.007812 142.917969 94.007812 L 122.808594 94.007812 C 122.5625 94.007812 122.320312 94.109375 122.148438 94.28125 C 121.972656 94.457031 121.871094 94.699219 121.871094 94.949219 L 121.871094 132.460938 C 121.871094 132.707031 121.972656 132.953125 122.148438 133.125 C 122.320312 133.296875 122.5625 133.402344 122.808594 133.402344 L 142.917969 133.402344 C 143.167969 133.402344 143.410156 133.296875 143.582031 133.125 C 143.757812 132.953125 143.859375 132.707031 143.859375 132.460938 L 142.917969 132.460938"/><path fill="#FFF" d="M 171 132.460938 L 150.890625 132.460938 L 150.890625 94.949219 L 171 94.949219 L 171 132.460938"/><path fill="#00ADEF" d="M 171 132.460938 L 171 131.527344 L 151.832031 131.527344 L 151.832031 95.882812 L 170.0625 95.882812 L 170.0625 132.460938 L 171 132.460938 L 171 131.527344 L 171 132.460938 L 171.941406 132.460938 L 171.941406 94.949219 C 171.941406 94.699219 171.835938 94.457031 171.660156 94.28125 C 171.488281 94.109375 171.25 94.007812 171 94.007812 L 150.890625 94.007812 C 150.644531 94.007812 150.402344 94.109375 150.230469 94.28125 C 150.054688 94.457031 149.953125 94.699219 149.953125 94.949219 L 149.953125 132.460938 C 149.953125 132.707031 150.054688 132.953125 150.230469 133.125 C 150.402344 133.296875 150.644531 133.402344 150.890625 133.402344 L 171 133.402344 C 171.25 133.402344 171.488281 133.296875 171.660156 133.125 C 171.835938 132.953125 171.941406 132.707031 171.941406 132.460938 L 171 132.460938"/><path fill="#FFF" d="M 199.082031 132.460938 L 178.972656 132.460938 L 178.972656 94.949219 L 199.082031 94.949219 L 199.082031 132.460938"/><path fill="#00ADEF" d="M 199.082031 132.460938 L 199.082031 131.527344 L 179.910156 131.527344 L 179.910156 95.882812 L 198.140625 95.882812 L 198.140625 132.460938 L 199.082031 132.460938 L 199.082031 131.527344 L 199.082031 132.460938 L 200.019531 132.460938 L 200.019531 94.949219 C 200.019531 94.699219 199.917969 94.457031 199.742188 94.28125 C 199.570312 94.109375 199.328125 94.007812 199.082031 94.007812 L 178.972656 94.007812 C 178.726562 94.007812 178.488281 94.109375 178.3125 94.28125 C 178.136719 94.457031 178.035156 94.699219 178.035156 94.949219 L 178.035156 132.460938 C 178.035156 132.707031 178.136719 132.953125 178.3125 133.125 C 178.488281 133.296875 178.726562 133.402344 178.972656 133.402344 L 199.082031 133.402344 C 199.328125 133.402344 199.570312 133.296875 199.742188 133.125 C 199.917969 132.953125 200.019531 132.707031 200.019531 132.460938 L 199.082031 132.460938"/><path fill="#FFF" d="M 227.164062 132.460938 L 207.054688 132.460938 L 207.054688 94.949219 L 227.164062 94.949219 L 227.164062 132.460938"/><path fill="#00ADEF" d="M 227.164062 132.460938 L 227.164062 131.527344 L 207.996094 131.527344 L 207.996094 95.882812 L 226.226562 95.882812 L 226.226562 132.460938 L 227.164062 132.460938 L 227.164062 131.527344 L 227.164062 132.460938 L 228.101562 132.460938 L 228.101562 94.949219 C 228.101562 94.699219 228 94.457031 227.828125 94.28125 C 227.652344 94.109375 227.410156 94.007812 227.164062 94.007812 L 207.054688 94.007812 C 206.808594 94.007812 206.570312 94.109375 206.394531 94.28125 C 206.21875 94.457031 206.117188 94.699219 206.117188 94.949219 L 206.117188 132.460938 C 206.117188 132.707031 206.21875 132.953125 206.394531 133.125 C 206.570312 133.296875 206.808594 133.402344 207.054688 133.402344 L 227.164062 133.402344 C 227.410156 133.402344 227.652344 133.296875 227.828125 133.125 C 228 132.953125 228.101562 132.707031 228.101562 132.460938 L 227.164062 132.460938"/><path fill="#FFF" d="M 142.917969 177.953125 L 122.808594 177.953125 L 122.808594 140.433594 L 142.917969 140.433594 L 142.917969 177.953125"/><path fill="#00ADEF" d="M 142.917969 177.953125 L 142.917969 177.015625 L 123.75 177.015625 L 123.75 141.371094 L 141.980469 141.371094 L 141.980469 177.953125 L 142.917969 177.953125 L 142.917969 177.015625 L 142.917969 177.953125 L 143.859375 177.953125 L 143.859375 140.433594 C 143.859375 140.1875 143.757812 139.945312 143.582031 139.769531 C 143.410156 139.59375 143.167969 139.496094 142.917969 139.496094 L 122.808594 139.496094 C 122.5625 139.496094 122.320312 139.59375 122.148438 139.769531 C 121.972656 139.945312 121.871094 140.1875 121.871094 140.433594 L 121.871094 177.953125 C 121.871094 178.203125 121.972656 178.4375 122.148438 178.613281 C 122.320312 178.789062 122.5625 178.894531 122.808594 178.894531 L 142.917969 178.894531 C 143.167969 178.894531 143.410156 178.789062 143.582031 178.613281 C 143.757812 178.4375 143.859375 178.203125 143.859375 177.953125 L 142.917969 177.953125"/><path fill="#FFF" d="M 171 177.953125 L 150.890625 177.953125 L 150.890625 140.433594 L 171 140.433594 L 171 177.953125"/><path fill="#00ADEF" d="M 171 177.953125 L 171 177.015625 L 151.832031 177.015625 L 151.832031 141.371094 L 170.0625 141.371094 L 170.0625 177.953125 L 171 177.953125 L 171 177.015625 L 171 177.953125 L 171.941406 177.953125 L 171.941406 140.433594 C 171.941406 140.1875 171.835938 139.945312 171.660156 139.769531 C 171.488281 139.59375 171.25 139.496094 171 139.496094 L 150.890625 139.496094 C 150.644531 139.496094 150.402344 139.59375 150.230469 139.769531 C 150.054688 139.945312 149.953125 140.1875 149.953125 140.433594 L 149.953125 177.953125 C 149.953125 178.203125 150.054688 178.4375 150.230469 178.613281 C 150.402344 178.789062 150.644531 178.894531 150.890625 178.894531 L 171 178.894531 C 171.25 178.894531 171.488281 178.789062 171.660156 178.613281 C 171.835938 178.4375 171.941406 178.203125 171.941406 177.953125 L 171 177.953125"/><path fill="#FFF" d="M 199.082031 177.953125 L 178.972656 177.953125 L 178.972656 140.433594 L 199.082031 140.433594 L 199.082031 177.953125"/><path fill="#00ADEF" d="M 199.082031 177.953125 L 199.082031 177.015625 L 179.910156 177.015625 L 179.910156 141.371094 L 198.140625 141.371094 L 198.140625 177.953125 L 199.082031 177.953125 L 199.082031 177.015625 L 199.082031 177.953125 L 200.019531 177.953125 L 200.019531 140.433594 C 200.019531 140.1875 199.917969 139.945312 199.742188 139.769531 C 199.570312 139.59375 199.328125 139.496094 199.082031 139.496094 L 178.972656 139.496094 C 178.726562 139.496094 178.488281 139.59375 178.3125 139.769531 C 178.136719 139.945312 178.035156 140.1875 178.035156 140.433594 L 178.035156 177.953125 C 178.035156 178.203125 178.136719 178.4375 178.3125 178.613281 C 178.488281 178.789062 178.726562 178.894531 178.972656 178.894531 L 199.082031 178.894531 C 199.328125 178.894531 199.570312 178.789062 199.742188 178.613281 C 199.917969 178.4375 200.019531 178.203125 200.019531 177.953125 L 199.082031 177.953125"/><path fill="#FFF" d="M 227.164062 177.953125 L 207.054688 177.953125 L 207.054688 140.433594 L 227.164062 140.433594 L 227.164062 177.953125"/><path fill="#00ADEF" d="M 227.164062 177.953125 L 227.164062 177.015625 L 207.996094 177.015625 L 207.996094 141.371094 L 226.226562 141.371094 L 226.226562 177.953125 L 227.164062 177.953125 L 227.164062 177.015625 L 227.164062 177.953125 L 228.101562 177.953125 L 228.101562 140.433594 C 228.101562 140.1875 228 139.945312 227.828125 139.769531 C 227.652344 139.59375 227.410156 139.496094 227.164062 139.496094 L 207.054688 139.496094 C 206.808594 139.496094 206.570312 139.59375 206.394531 139.769531 C 206.21875 139.945312 206.117188 140.1875 206.117188 140.433594 L 206.117188 177.953125 C 206.117188 178.203125 206.21875 178.4375 206.394531 178.613281 C 206.570312 178.789062 206.808594 178.894531 207.054688 178.894531 L 227.164062 178.894531 C 227.410156 178.894531 227.652344 178.789062 227.828125 178.613281 C 228 178.4375 228.101562 178.203125 228.101562 177.953125 L 227.164062 177.953125"/><path fill="#FFF" d="M 255.949219 132.460938 L 235.84375 132.460938 L 235.84375 94.949219 L 255.949219 94.949219 L 255.949219 132.460938"/><path fill="#00ADEF" d="M 255.949219 132.460938 L 255.949219 131.527344 L 236.78125 131.527344 L 236.78125 95.882812 L 255.011719 95.882812 L 255.011719 132.460938 L 255.949219 132.460938 L 255.949219 131.527344 L 255.949219 132.460938 L 256.890625 132.460938 L 256.890625 94.949219 C 256.890625 94.699219 256.792969 94.457031 256.617188 94.28125 C 256.441406 94.109375 256.199219 94.007812 255.949219 94.007812 L 235.84375 94.007812 C 235.597656 94.007812 235.355469 94.109375 235.179688 94.28125 C 235.003906 94.457031 234.90625 94.699219 234.90625 94.949219 L 234.90625 132.460938 C 234.90625 132.707031 235.003906 132.953125 235.179688 133.125 C 235.355469 133.296875 235.597656 133.402344 235.84375 133.402344 L 255.949219 133.402344 C 256.199219 133.402344 256.441406 133.296875 256.617188 133.125 C 256.792969 132.953125 256.890625 132.707031 256.890625 132.460938 L 255.949219 132.460938"/><path fill="#FFF" d="M 255.949219 177.953125 L 235.84375 177.953125 L 235.84375 140.433594 L 255.949219 140.433594 L 255.949219 177.953125"/><path fill="#00ADEF" d="M 255.949219 177.953125 L 255.949219 177.015625 L 236.78125 177.015625 L 236.78125 141.371094 L 255.011719 141.371094 L 255.011719 177.953125 L 255.949219 177.953125 L 255.949219 177.015625 L 255.949219 177.953125 L 256.890625 177.953125 L 256.890625 140.433594 C 256.890625 140.1875 256.792969 139.945312 256.617188 139.769531 C 256.441406 139.59375 256.199219 139.496094 255.949219 139.496094 L 235.84375 139.496094 C 235.597656 139.496094 235.355469 139.59375 235.179688 139.769531 C 235.003906 139.945312 234.90625 140.1875 234.90625 140.433594 L 234.90625 177.953125 C 234.90625 178.203125 235.003906 178.4375 235.179688 178.613281 C 235.355469 178.789062 235.597656 178.894531 235.84375 178.894531 L 255.949219 178.894531 C 256.199219 178.894531 256.441406 178.789062 256.617188 178.613281 C 256.792969 178.4375 256.890625 178.203125 256.890625 177.953125 L 255.949219 177.953125"/><path fill="#FFF" d="M 145.675781 214.464844 L 118.683594 214.464844 L 118.683594 231.917969 L 145.675781 231.917969 L 145.675781 214.464844"/><path fill="#00ADEF" d="M 145.675781 214.464844 L 145.675781 213.523438 L 118.683594 213.523438 C 118.4375 213.523438 118.195312 213.621094 118.019531 213.796875 C 117.84375 213.972656 117.742188 214.214844 117.742188 214.464844 L 117.742188 231.917969 C 117.742188 232.164062 117.84375 232.40625 118.019531 232.582031 C 118.195312 232.753906 118.4375 232.855469 118.683594 232.855469 L 145.675781 232.855469 C 145.917969 232.855469 146.160156 232.753906 146.335938 232.582031 C 146.511719 232.40625 146.609375 232.164062 146.609375 231.917969 L 146.609375 214.464844 C 146.609375 214.214844 146.511719 213.972656 146.335938 213.796875 C 146.160156 213.621094 145.917969 213.523438 145.675781 213.523438 L 145.675781 214.464844 L 144.734375 214.464844 L 144.734375 230.980469 L 119.625 230.980469 L 119.625 215.398438 L 145.675781 215.398438 L 145.675781 214.464844 L 144.734375 214.464844 L 145.675781 214.464844"/><path fill="#FFF" d="M 260.078125 214.464844 L 233.089844 214.464844 L 233.089844 231.917969 L 260.078125 231.917969 L 260.078125 214.464844"/><path fill="#00ADEF" d="M 260.078125 214.464844 L 260.078125 213.523438 L 233.089844 213.523438 C 232.84375 213.523438 232.597656 213.621094 232.421875 213.796875 C 232.25 213.972656 232.148438 214.214844 232.148438 214.464844 L 232.148438 231.917969 C 232.148438 232.164062 232.25 232.40625 232.421875 232.582031 C 232.597656 232.753906 232.84375 232.855469 233.089844 232.855469 L 260.078125 232.855469 C 260.328125 232.855469 260.566406 232.753906 260.742188 232.582031 C 260.917969 232.40625 261.019531 232.164062 261.019531 231.917969 L 261.019531 214.464844 C 261.019531 214.214844 260.917969 213.972656 260.742188 213.796875 C 260.566406 213.621094 260.328125 213.523438 260.078125 213.523438 L 260.078125 214.464844 L 259.140625 214.464844 L 259.140625 230.980469 L 234.027344 230.980469 L 234.027344 215.398438 L 260.078125 215.398438 L 260.078125 214.464844 L 259.140625 214.464844 L 260.078125 214.464844"/><path fill="#FFF" d="M 145.675781 239.230469 L 118.683594 239.230469 L 118.683594 256.6875 L 145.675781 256.6875 L 145.675781 239.230469"/><path fill="#00ADEF" d="M 145.675781 239.230469 L 145.675781 238.292969 L 118.683594 238.292969 C 118.4375 238.292969 118.195312 238.394531 118.019531 238.570312 C 117.84375 238.742188 117.742188 238.984375 117.742188 239.230469 L 117.742188 256.6875 C 117.742188 256.9375 117.84375 257.179688 118.019531 257.351562 C 118.195312 257.527344 118.4375 257.628906 118.683594 257.628906 L 145.675781 257.628906 C 145.917969 257.628906 146.160156 257.527344 146.335938 257.351562 C 146.511719 257.179688 146.609375 256.9375 146.609375 256.6875 L 146.609375 239.230469 C 146.609375 238.984375 146.511719 238.742188 146.335938 238.570312 C 146.160156 238.394531 145.917969 238.292969 145.675781 238.292969 L 145.675781 239.230469 L 144.734375 239.230469 L 144.734375 255.75 L 119.625 255.75 L 119.625 240.171875 L 145.675781 240.171875 L 145.675781 239.230469 L 144.734375 239.230469 L 145.675781 239.230469"/><path fill="#FFF" d="M 260.078125 239.230469 L 233.089844 239.230469 L 233.089844 256.6875 L 260.078125 256.6875 L 260.078125 239.230469"/><path fill="#00ADEF" d="M 260.078125 239.230469 L 260.078125 238.292969 L 233.089844 238.292969 C 232.84375 238.292969 232.597656 238.394531 232.421875 238.570312 C 232.25 238.742188 232.148438 238.984375 232.148438 239.230469 L 232.148438 256.6875 C 232.148438 256.9375 232.25 257.179688 232.421875 257.351562 C 232.597656 257.527344 232.84375 257.628906 233.089844 257.628906 L 260.078125 257.628906 C 260.328125 257.628906 260.566406 257.527344 260.742188 257.351562 C 260.917969 257.179688 261.019531 256.9375 261.019531 256.6875 L 261.019531 239.230469 C 261.019531 238.984375 260.917969 238.742188 260.742188 238.570312 C 260.566406 238.394531 260.328125 238.292969 260.078125 238.292969 L 260.078125 239.230469 L 259.140625 239.230469 L 259.140625 255.75 L 234.027344 255.75 L 234.027344 240.171875 L 260.078125 240.171875 L 260.078125 239.230469 L 259.140625 239.230469 L 260.078125 239.230469"/><path fill="#FFF" d="M 216.140625 245.164062 L 162.617188 245.164062 L 162.617188 314.789062 L 216.140625 314.789062 L 216.140625 245.164062"/><g clip-path="url(#h)"><path fill="#00ADEF" d="M 216.140625 245.164062 L 216.140625 244.226562 L 162.617188 244.226562 C 162.371094 244.226562 162.128906 244.328125 161.957031 244.503906 C 161.78125 244.679688 161.679688 244.917969 161.679688 245.164062 L 161.679688 314.789062 C 161.679688 315.039062 161.78125 315.28125 161.957031 315.457031 C 162.128906 315.632812 162.371094 315.730469 162.617188 315.730469 L 216.140625 315.730469 C 216.386719 315.730469 216.632812 315.632812 216.808594 315.457031 C 216.984375 315.277344 217.082031 315.039062 217.082031 314.789062 L 217.082031 245.164062 C 217.082031 244.917969 216.984375 244.679688 216.808594 244.503906 C 216.632812 244.328125 216.386719 244.226562 216.140625 244.226562 L 216.140625 245.164062 L 215.203125 245.164062 L 215.203125 313.855469 L 163.558594 313.855469 L 163.558594 246.105469 L 216.140625 246.105469 L 216.140625 245.164062 L 215.203125 245.164062 L 216.140625 245.164062"/></g><g clip-path="url(#i)"><path fill="#00ADEF" d="M 188.441406 245.164062 L 188.441406 314.789062 C 188.441406 315.308594 188.863281 315.730469 189.378906 315.730469 C 189.898438 315.730469 190.320312 315.308594 190.320312 314.789062 L 190.320312 245.164062 C 190.320312 244.648438 189.898438 244.226562 189.378906 244.226562 C 188.863281 244.226562 188.441406 244.648438 188.441406 245.164062"/></g><path fill="#FBBF09" d="M 215.03125 235.832031 L 215.03125 218.800781 C 212.632812 218.800781 210.6875 216.855469 210.6875 214.464844 L 168.070312 214.464844 C 168.070312 216.855469 166.132812 218.800781 163.734375 218.800781 L 163.734375 235.832031 C 166.132812 235.832031 168.070312 237.773438 168.070312 240.171875 L 210.6875 240.171875 C 210.6875 237.773438 212.632812 235.832031 215.03125 235.832031"/><path fill="#F68313" d="M 215.03125 235.832031 L 215.96875 235.832031 L 215.96875 218.800781 C 215.96875 218.550781 215.867188 218.3125 215.691406 218.136719 C 215.515625 217.957031 215.277344 217.859375 215.03125 217.859375 C 213.148438 217.855469 211.628906 216.335938 211.628906 214.464844 C 211.628906 214.214844 211.527344 213.972656 211.351562 213.796875 C 211.179688 213.621094 210.9375 213.523438 210.6875 213.523438 L 168.070312 213.523438 C 167.828125 213.523438 167.585938 213.621094 167.410156 213.796875 C 167.234375 213.972656 167.136719 214.214844 167.136719 214.464844 C 167.132812 216.335938 165.609375 217.855469 163.734375 217.859375 C 163.488281 217.859375 163.246094 217.957031 163.070312 218.132812 C 162.894531 218.3125 162.796875 218.550781 162.796875 218.800781 L 162.796875 235.832031 C 162.796875 236.082031 162.894531 236.320312 163.070312 236.496094 C 163.246094 236.671875 163.488281 236.769531 163.734375 236.769531 C 165.609375 236.777344 167.132812 238.292969 167.136719 240.171875 C 167.136719 240.417969 167.234375 240.65625 167.410156 240.832031 C 167.585938 241.007812 167.828125 241.109375 168.070312 241.109375 L 210.6875 241.109375 C 210.9375 241.109375 211.179688 241.007812 211.351562 240.832031 C 211.527344 240.65625 211.628906 240.417969 211.628906 240.171875 C 211.628906 238.292969 213.148438 236.777344 215.03125 236.769531 C 215.277344 236.769531 215.515625 236.671875 215.691406 236.496094 C 215.867188 236.316406 215.96875 236.082031 215.96875 235.832031 L 215.03125 235.832031 L 215.03125 234.894531 C 212.109375 234.894531 209.75 237.253906 209.75 240.171875 L 210.6875 240.171875 L 210.6875 239.230469 L 168.070312 239.230469 L 168.070312 240.171875 L 169.011719 240.171875 C 169.011719 237.253906 166.648438 234.894531 163.734375 234.894531 L 163.734375 235.832031 L 164.675781 235.832031 L 164.675781 218.800781 L 163.734375 218.800781 L 163.734375 219.734375 C 166.648438 219.734375 169.011719 217.375 169.011719 214.464844 L 168.070312 214.464844 L 168.070312 215.398438 L 210.6875 215.398438 L 210.6875 214.464844 L 209.75 214.464844 C 209.75 217.375 212.109375 219.734375 215.03125 219.734375 L 215.03125 218.800781 L 214.089844 218.800781 L 214.089844 235.832031 L 215.03125 235.832031 L 215.03125 234.894531 L 215.03125 235.832031"/><path fill="#FFF" d="M 174.09375 221.960938 L 176.570312 221.960938 L 176.570312 232.714844 L 174.09375 232.714844 L 174.09375 228.65625 L 170.984375 228.65625 L 170.984375 232.714844 L 168.503906 232.714844 L 168.503906 221.960938 L 170.984375 221.960938 L 170.984375 226.179688 L 174.09375 226.179688 L 174.09375 221.960938"/><path fill="#FFF" d="M 182.46875 230.226562 C 182.867188 230.226562 183.246094 230.152344 183.597656 229.996094 C 183.945312 229.847656 184.257812 229.640625 184.519531 229.371094 C 184.78125 229.109375 184.992188 228.800781 185.144531 228.453125 C 185.292969 228.097656 185.371094 227.726562 185.371094 227.324219 C 185.371094 226.921875 185.292969 226.546875 185.144531 226.195312 C 184.992188 225.84375 184.78125 225.535156 184.519531 225.269531 C 184.257812 225.007812 183.945312 224.800781 183.597656 224.648438 C 183.246094 224.496094 182.867188 224.421875 182.46875 224.421875 C 182.0625 224.421875 181.6875 224.496094 181.335938 224.648438 C 180.984375 224.800781 180.675781 225.007812 180.414062 225.269531 C 180.148438 225.535156 179.945312 225.84375 179.789062 226.195312 C 179.640625 226.546875 179.5625 226.921875 179.5625 227.324219 C 179.5625 227.726562 179.640625 228.097656 179.789062 228.453125 C 179.945312 228.800781 180.148438 229.109375 180.414062 229.371094 C 180.675781 229.640625 180.984375 229.847656 181.335938 229.996094 C 181.6875 230.152344 182.0625 230.226562 182.46875 230.226562 Z M 182.460938 221.945312 C 183.199219 221.945312 183.898438 222.085938 184.554688 222.371094 C 185.207031 222.65625 185.777344 223.035156 186.265625 223.523438 C 186.757812 224.003906 187.140625 224.570312 187.421875 225.226562 C 187.707031 225.882812 187.847656 226.582031 187.847656 227.324219 C 187.847656 228.066406 187.707031 228.765625 187.421875 229.417969 C 187.140625 230.070312 186.757812 230.640625 186.265625 231.125 C 185.777344 231.605469 185.207031 231.988281 184.554688 232.277344 C 183.898438 232.558594 183.199219 232.703125 182.460938 232.703125 C 181.71875 232.703125 181.019531 232.558594 180.363281 232.277344 C 179.710938 231.988281 179.140625 231.605469 178.660156 231.125 C 178.175781 230.640625 177.792969 230.070312 177.507812 229.417969 C 177.226562 228.765625 177.082031 228.066406 177.082031 227.324219 C 177.082031 226.582031 177.226562 225.882812 177.507812 225.226562 C 177.792969 224.570312 178.175781 224.003906 178.660156 223.523438 C 179.140625 223.035156 179.710938 222.65625 180.363281 222.371094 C 181.019531 222.085938 181.71875 221.945312 182.460938 221.945312"/><path fill="#FFF" d="M 194.769531 221.914062 L 194.769531 224.390625 L 192.703125 224.390625 L 192.703125 232.714844 L 190.226562 232.714844 L 190.226562 224.390625 L 188.171875 224.390625 L 188.171875 221.914062 L 194.769531 221.914062"/><path fill="#FFF" d="M 202.570312 224.4375 L 198.144531 224.4375 L 198.144531 226.058594 L 201.734375 226.058594 L 201.734375 228.535156 L 198.144531 228.535156 L 198.144531 230.238281 L 202.570312 230.238281 L 202.570312 232.714844 L 195.664062 232.714844 L 195.664062 221.972656 L 202.570312 221.960938 L 202.570312 224.4375"/><path fill="#FFF" d="M 210.253906 232.714844 L 203.84375 232.714844 L 203.84375 221.945312 L 206.328125 221.945312 L 206.328125 230.238281 L 210.253906 230.238281 L 210.253906 232.714844"/><path fill="#FFF" d="M 312.457031 241.882812 L 283.132812 241.882812 L 288.308594 231.539062 L 307.28125 231.539062 L 312.457031 241.882812"/><path fill="#F68313" d="M 312.457031 241.882812 L 312.457031 240.945312 L 284.652344 240.945312 L 288.886719 232.480469 L 306.703125 232.480469 L 311.613281 242.300781 L 312.457031 241.882812 L 312.457031 240.945312 L 312.457031 241.882812 L 313.292969 241.460938 L 308.121094 231.121094 C 307.964844 230.804688 307.636719 230.605469 307.28125 230.605469 L 288.308594 230.605469 C 287.949219 230.605469 287.625 230.804688 287.46875 231.121094 L 282.292969 241.460938 C 282.144531 241.757812 282.164062 242.097656 282.332031 242.375 C 282.507812 242.65625 282.808594 242.820312 283.132812 242.820312 L 312.457031 242.820312 C 312.78125 242.820312 313.082031 242.65625 313.253906 242.375 C 313.425781 242.097656 313.4375 241.757812 313.292969 241.460938 L 312.457031 241.882812"/><path fill="#A7A5A6" d="M 259.476562 294.625 L 259.476562 308.914062 C 259.476562 312.160156 262.109375 314.789062 265.355469 314.789062 C 268.601562 314.789062 271.230469 312.160156 271.230469 308.914062 L 271.230469 294.625 L 259.476562 294.625"/><g clip-path="url(#j)"><path fill="#4F4C4C" d="M 259.476562 294.625 L 258.539062 294.625 L 258.539062 308.914062 C 258.539062 312.679688 261.59375 315.730469 265.355469 315.730469 C 269.121094 315.730469 272.171875 312.679688 272.171875 308.914062 L 272.171875 294.625 C 272.171875 294.375 272.074219 294.132812 271.898438 293.960938 C 271.722656 293.785156 271.480469 293.683594 271.230469 293.683594 L 259.476562 293.683594 C 259.230469 293.683594 258.988281 293.785156 258.816406 293.960938 C 258.640625 294.132812 258.539062 294.375 258.539062 294.625 L 259.476562 294.625 L 259.476562 295.5625 L 270.296875 295.5625 L 270.296875 308.914062 C 270.296875 310.285156 269.742188 311.511719 268.847656 312.40625 C 267.949219 313.300781 266.722656 313.851562 265.355469 313.855469 C 263.992188 313.851562 262.761719 313.300781 261.863281 312.40625 C 260.96875 311.511719 260.417969 310.285156 260.417969 308.914062 L 260.417969 294.625 L 259.476562 294.625 L 259.476562 295.5625 L 259.476562 294.625"/></g><path fill="#A7A5A6" d="M 324.351562 294.625 L 324.351562 308.914062 C 324.351562 312.160156 326.984375 314.789062 330.230469 314.789062 C 333.480469 314.789062 336.113281 312.160156 336.113281 308.914062 L 336.113281 294.625 L 324.351562 294.625"/><g clip-path="url(#k)"><path fill="#4F4C4C" d="M 324.351562 294.625 L 323.414062 294.625 L 323.414062 308.914062 C 323.414062 312.679688 326.46875 315.730469 330.230469 315.730469 C 333.996094 315.730469 337.050781 312.679688 337.050781 308.914062 L 337.050781 294.625 C 337.050781 294.375 336.949219 294.132812 336.773438 293.960938 C 336.597656 293.785156 336.359375 293.683594 336.113281 293.683594 L 324.351562 293.683594 C 324.105469 293.683594 323.867188 293.785156 323.691406 293.960938 C 323.515625 294.132812 323.414062 294.375 323.414062 294.625 L 324.351562 294.625 L 324.351562 295.5625 L 335.171875 295.5625 L 335.171875 308.914062 C 335.171875 310.285156 334.621094 311.511719 333.726562 312.40625 C 332.828125 313.300781 331.597656 313.851562 330.230469 313.855469 C 328.867188 313.851562 327.636719 313.300781 326.738281 312.40625 C 325.84375 311.511719 325.292969 310.285156 325.292969 308.914062 L 325.292969 294.625 L 324.351562 294.625 L 324.351562 295.5625 L 324.351562 294.625"/></g><path fill="#FBBF09" d="M 332.636719 270.839844 L 324.816406 246.566406 C 324.816406 246.566406 322.84375 241.523438 317.996094 241.523438 C 313.148438 241.523438 296.757812 241.523438 296.757812 241.523438 C 296.757812 241.523438 282.8125 241.523438 276.992188 241.523438 C 272.785156 241.523438 270.933594 246.132812 270.933594 246.132812 L 262.953125 270.839844 C 262.953125 270.839844 259.203125 275.070312 255.457031 279.378906 C 253.90625 281.164062 252.605469 282.730469 252.605469 286.546875 C 252.605469 289.417969 252.605469 293.394531 252.605469 295.117188 C 252.605469 297.570312 253.121094 301.867188 257.90625 301.867188 C 271.878906 301.867188 296.757812 301.867188 296.757812 301.867188 C 296.757812 301.867188 323.210938 301.867188 333.585938 301.867188 C 341.082031 301.867188 342.984375 297.921875 342.984375 295.011719 C 342.984375 293.214844 342.984375 289.226562 342.984375 286.394531 C 342.984375 282.6875 341.953125 281.746094 340.945312 280.585938 C 337.261719 276.332031 332.636719 270.839844 332.636719 270.839844"/><path fill="#F68313" d="M 332.636719 270.839844 L 333.53125 270.550781 L 325.710938 246.28125 L 325.6875 246.226562 C 325.664062 246.167969 325.144531 244.820312 323.933594 243.429688 C 323.328125 242.734375 322.546875 242.027344 321.558594 241.484375 C 320.570312 240.945312 319.371094 240.582031 317.996094 240.582031 C 315.570312 240.582031 310.261719 240.582031 305.554688 240.582031 C 303.207031 240.582031 301.003906 240.582031 299.394531 240.582031 C 297.78125 240.582031 296.761719 240.582031 296.757812 240.582031 C 296.757812 240.582031 282.8125 240.582031 276.992188 240.582031 C 275.765625 240.582031 274.691406 240.925781 273.804688 241.421875 C 272.476562 242.175781 271.5625 243.261719 270.960938 244.148438 C 270.363281 245.035156 270.078125 245.738281 270.058594 245.785156 L 270.035156 245.84375 L 262.058594 270.550781 L 262.953125 270.839844 L 262.25 270.21875 C 262.25 270.21875 258.5 274.457031 254.75 278.761719 C 253.972656 279.65625 253.183594 280.570312 252.601562 281.800781 C 252.015625 283.027344 251.664062 284.535156 251.664062 286.546875 C 251.664062 289.417969 251.664062 293.394531 251.664062 295.117188 C 251.671875 296.410156 251.785156 298.222656 252.632812 299.847656 C 253.054688 300.65625 253.683594 301.417969 254.570312 301.957031 C 255.453125 302.5 256.574219 302.800781 257.90625 302.800781 C 271.878906 302.800781 296.757812 302.800781 296.757812 302.800781 C 296.761719 302.800781 298.410156 302.800781 301.054688 302.800781 C 308.980469 302.800781 325.804688 302.800781 333.585938 302.800781 C 337.492188 302.804688 340.113281 301.765625 341.746094 300.207031 C 343.378906 298.644531 343.921875 296.660156 343.921875 295.011719 C 343.921875 293.214844 343.921875 289.226562 343.921875 286.394531 C 343.921875 284.460938 343.652344 283.148438 343.199219 282.148438 C 342.746094 281.148438 342.132812 280.523438 341.660156 279.96875 C 339.816406 277.847656 337.738281 275.414062 336.125 273.511719 C 335.316406 272.558594 334.621094 271.738281 334.128906 271.160156 C 333.636719 270.578125 333.351562 270.234375 333.351562 270.234375 L 332.636719 270.839844 L 333.53125 270.550781 L 332.636719 270.839844 L 331.914062 271.441406 C 331.917969 271.445312 336.546875 276.9375 340.238281 281.195312 C 340.773438 281.808594 341.175781 282.238281 341.488281 282.921875 C 341.800781 283.609375 342.042969 284.625 342.046875 286.394531 C 342.046875 289.226562 342.046875 293.214844 342.046875 295.011719 C 342.042969 296.269531 341.640625 297.707031 340.445312 298.847656 C 339.253906 299.988281 337.179688 300.921875 333.585938 300.925781 C 328.394531 300.925781 319.195312 300.925781 311.28125 300.925781 C 307.324219 300.925781 303.695312 300.925781 301.054688 300.925781 C 298.410156 300.925781 296.761719 300.925781 296.757812 300.925781 C 296.757812 300.925781 271.878906 300.925781 257.90625 300.925781 C 256.847656 300.925781 256.109375 300.691406 255.550781 300.355469 C 254.722656 299.847656 254.222656 299.03125 253.917969 298.054688 C 253.617188 297.082031 253.542969 295.984375 253.542969 295.117188 C 253.542969 293.394531 253.542969 289.417969 253.542969 286.546875 C 253.546875 284.742188 253.847656 283.558594 254.296875 282.601562 C 254.75 281.648438 255.390625 280.882812 256.167969 279.988281 C 258.035156 277.84375 259.910156 275.707031 261.316406 274.113281 C 262.722656 272.519531 263.652344 271.464844 263.65625 271.464844 C 263.746094 271.363281 263.808594 271.25 263.847656 271.125 L 271.824219 246.421875 L 270.933594 246.132812 L 271.800781 246.484375 L 271.46875 246.347656 L 271.800781 246.484375 L 271.46875 246.347656 L 271.800781 246.484375 C 271.800781 246.472656 272.253906 245.398438 273.140625 244.390625 C 273.582031 243.882812 274.121094 243.394531 274.761719 243.042969 C 275.398438 242.6875 276.125 242.464844 276.992188 242.460938 C 282.8125 242.460938 296.757812 242.460938 296.757812 242.460938 C 296.761719 242.460938 297.78125 242.460938 299.394531 242.460938 C 304.230469 242.460938 314.359375 242.460938 317.996094 242.460938 C 319.042969 242.464844 319.910156 242.726562 320.660156 243.132812 C 321.773438 243.742188 322.613281 244.691406 323.160156 245.496094 C 323.433594 245.902344 323.632812 246.261719 323.761719 246.519531 C 323.828125 246.648438 323.875 246.753906 323.902344 246.820312 L 323.9375 246.894531 L 323.941406 246.90625 L 323.996094 246.886719 L 323.941406 246.90625 L 323.996094 246.886719 L 323.941406 246.90625 L 324.816406 246.566406 L 323.925781 246.855469 L 331.738281 271.125 C 331.777344 271.246094 331.835938 271.351562 331.914062 271.441406 L 332.636719 270.839844"/><path fill="#F68313" d="M 268.644531 271.78125 L 326.941406 271.78125 C 327.464844 271.78125 327.878906 271.359375 327.878906 270.839844 C 327.878906 270.320312 327.464844 269.902344 326.941406 269.902344 L 268.644531 269.902344 C 268.125 269.902344 267.707031 270.320312 267.707031 270.839844 C 267.707031 271.359375 268.125 271.78125 268.644531 271.78125"/><path fill="#FFF" d="M 314.472656 246.980469 C 311.195312 246.980469 296.757812 246.980469 296.757812 246.980469 C 296.757812 246.980469 284.644531 246.980469 280.710938 246.980469 C 277.875 246.980469 276.621094 249.871094 276.621094 249.871094 L 271.230469 265.382812 L 324.351562 265.382812 L 319.078125 250.140625 C 319.078125 250.140625 317.746094 246.980469 314.472656 246.980469"/><path fill="#F68313" d="M 314.472656 246.980469 L 314.472656 246.039062 C 312.832031 246.039062 308.40625 246.039062 304.386719 246.039062 C 302.375 246.039062 300.46875 246.039062 299.066406 246.039062 C 297.660156 246.039062 296.761719 246.039062 296.757812 246.039062 C 296.757812 246.039062 284.644531 246.039062 280.710938 246.039062 C 279.839844 246.039062 279.070312 246.265625 278.4375 246.601562 C 277.488281 247.105469 276.832031 247.820312 276.40625 248.40625 C 275.980469 248.992188 275.773438 249.453125 275.757812 249.5 L 275.734375 249.566406 L 270.34375 265.074219 C 270.246094 265.363281 270.292969 265.679688 270.46875 265.929688 C 270.644531 266.175781 270.929688 266.324219 271.230469 266.324219 L 324.351562 266.324219 C 324.660156 266.324219 324.945312 266.175781 325.117188 265.929688 C 325.296875 265.679688 325.339844 265.367188 325.242188 265.074219 L 319.964844 249.835938 L 319.941406 249.78125 C 319.914062 249.71875 319.542969 248.835938 318.683594 247.917969 C 317.839844 247.007812 316.429688 246.035156 314.472656 246.039062 L 314.472656 247.914062 C 315.789062 247.917969 316.679688 248.535156 317.316406 249.199219 C 317.628906 249.535156 317.859375 249.875 318.007812 250.125 C 318.082031 250.253906 318.136719 250.355469 318.167969 250.425781 L 318.207031 250.496094 L 318.210938 250.507812 L 318.414062 250.421875 L 318.210938 250.507812 L 318.414062 250.421875 L 318.210938 250.507812 L 319.078125 250.140625 L 318.191406 250.449219 L 323.035156 264.449219 L 272.550781 264.449219 L 277.507812 250.179688 L 276.621094 249.871094 L 277.480469 250.246094 L 277.25 250.144531 L 277.476562 250.25 L 277.480469 250.246094 L 277.25 250.144531 L 277.476562 250.25 C 277.492188 250.226562 277.785156 249.582031 278.34375 249.003906 C 278.910156 248.417969 279.664062 247.917969 280.710938 247.914062 C 284.644531 247.914062 296.757812 247.914062 296.757812 247.914062 C 296.757812 247.914062 311.195312 247.914062 314.472656 247.914062 L 314.472656 246.980469"/><path fill="#FFF" d="M 275.160156 288.292969 C 275.160156 291.785156 272.320312 294.625 268.816406 294.625 C 265.320312 294.625 262.480469 291.785156 262.480469 288.292969 C 262.480469 284.792969 265.320312 281.957031 268.816406 281.957031 C 272.320312 281.957031 275.160156 284.792969 275.160156 288.292969"/><path fill="#F68313" d="M 275.160156 288.292969 L 274.21875 288.292969 C 274.21875 289.785156 273.613281 291.125 272.636719 292.109375 C 271.65625 293.085938 270.3125 293.683594 268.816406 293.683594 C 267.328125 293.683594 265.980469 293.085938 265.003906 292.109375 C 264.023438 291.125 263.421875 289.785156 263.421875 288.292969 C 263.421875 286.796875 264.023438 285.453125 265.003906 284.476562 C 265.980469 283.496094 267.328125 282.894531 268.816406 282.894531 C 270.3125 282.894531 271.65625 283.496094 272.636719 284.476562 C 273.613281 285.453125 274.21875 286.796875 274.21875 288.292969 L 276.097656 288.292969 C 276.097656 284.273438 272.839844 281.019531 268.816406 281.019531 C 264.796875 281.019531 261.542969 284.273438 261.542969 288.292969 C 261.542969 292.308594 264.796875 295.5625 268.816406 295.5625 C 272.839844 295.5625 276.097656 292.308594 276.097656 288.292969 L 275.160156 288.292969"/><path fill="#FFF" d="M 333.109375 288.292969 C 333.109375 291.785156 330.269531 294.625 326.773438 294.625 C 323.269531 294.625 320.429688 291.785156 320.429688 288.292969 C 320.429688 284.792969 323.269531 281.957031 326.773438 281.957031 C 330.269531 281.957031 333.109375 284.792969 333.109375 288.292969"/><path fill="#F68313" d="M 333.109375 288.292969 L 332.167969 288.292969 C 332.167969 289.785156 331.566406 291.125 330.585938 292.109375 C 329.609375 293.085938 328.261719 293.683594 326.773438 293.683594 C 325.277344 293.683594 323.933594 293.085938 322.953125 292.109375 C 321.972656 291.125 321.371094 289.785156 321.371094 288.292969 C 321.371094 286.796875 321.972656 285.453125 322.953125 284.476562 C 323.933594 283.496094 325.277344 282.894531 326.773438 282.894531 C 328.261719 282.894531 329.609375 283.496094 330.585938 284.476562 C 331.566406 285.453125 332.167969 286.796875 332.167969 288.292969 L 334.046875 288.292969 C 334.046875 284.273438 330.789062 281.019531 326.773438 281.019531 C 322.753906 281.019531 319.492188 284.273438 319.492188 288.292969 C 319.492188 292.308594 322.753906 295.5625 326.773438 295.5625 C 330.789062 295.5625 334.046875 292.308594 334.046875 288.292969 L 333.109375 288.292969"/><path fill="#F68313" d="M 283.046875 284.703125 L 312.539062 284.703125 C 313.058594 284.703125 313.480469 284.285156 313.480469 283.769531 C 313.480469 283.25 313.058594 282.828125 312.539062 282.828125 L 283.046875 282.828125 C 282.527344 282.828125 282.109375 283.25 282.109375 283.769531 C 282.109375 284.285156 282.527344 284.703125 283.046875 284.703125"/><path fill="#F68313" d="M 283.046875 288.324219 L 312.539062 288.324219 C 313.058594 288.324219 313.480469 287.90625 313.480469 287.382812 C 313.480469 286.867188 313.058594 286.449219 312.539062 286.449219 L 283.046875 286.449219 C 282.527344 286.449219 282.109375 286.867188 282.109375 287.382812 C 282.109375 287.90625 282.527344 288.324219 283.046875 288.324219"/><path fill="#F68313" d="M 283.046875 291.945312 L 312.539062 291.945312 C 313.058594 291.945312 313.480469 291.523438 313.480469 291.003906 C 313.480469 290.488281 313.058594 290.070312 312.539062 290.070312 L 283.046875 290.070312 C 282.527344 290.070312 282.109375 290.488281 282.109375 291.003906 C 282.109375 291.523438 282.527344 291.945312 283.046875 291.945312"/><path fill="#F68313" d="M 283.046875 295.5625 L 312.539062 295.5625 C 313.058594 295.5625 313.480469 295.144531 313.480469 294.625 C 313.480469 294.105469 313.058594 293.683594 312.539062 293.683594 L 283.046875 293.683594 C 282.527344 293.683594 282.109375 294.105469 282.109375 294.625 C 282.109375 295.144531 282.527344 295.5625 283.046875 295.5625"/><path fill="#99DEF9" d="M 92.261719 262.550781 L 88.273438 263.835938 L 98.058594 277.425781 L 107.863281 263.84375 L 103.851562 262.550781 L 98.058594 270.828125 L 92.261719 262.550781"/><path fill="#00ADEF" d="M 92.261719 262.550781 L 91.972656 261.65625 L 87.984375 262.941406 C 87.699219 263.03125 87.476562 263.253906 87.382812 263.539062 C 87.289062 263.828125 87.335938 264.136719 87.511719 264.382812 L 97.296875 277.976562 C 97.472656 278.21875 97.753906 278.363281 98.058594 278.363281 C 98.359375 278.367188 98.640625 278.21875 98.820312 277.976562 L 108.625 264.394531 C 108.800781 264.148438 108.851562 263.839844 108.753906 263.554688 C 108.664062 263.265625 108.4375 263.046875 108.152344 262.949219 L 104.136719 261.65625 C 103.746094 261.53125 103.316406 261.675781 103.078125 262.011719 L 98.058594 269.191406 L 93.03125 262.011719 C 92.792969 261.675781 92.367188 261.53125 91.972656 261.65625 L 92.261719 262.550781 L 91.492188 263.085938 L 97.289062 271.367188 C 97.460938 271.617188 97.75 271.765625 98.058594 271.765625 C 98.367188 271.765625 98.648438 271.617188 98.828125 271.367188 L 104.222656 263.65625 L 106.347656 264.34375 L 98.058594 275.820312 L 89.789062 264.332031 L 92.550781 263.445312 L 92.261719 262.550781 L 91.492188 263.085938 L 92.261719 262.550781"/><path fill="#99DEF9" d="M 121.402344 314.789062 L 121.753906 268.308594 L 103.875 262.550781 L 92.285156 262.550781 L 74.402344 268.308594 L 74.386719 314.789062 L 121.402344 314.789062"/><g clip-path="url(#l)"><path fill="#00ADEF" d="M 121.402344 314.789062 L 122.34375 314.796875 L 122.691406 268.316406 C 122.695312 267.90625 122.433594 267.542969 122.042969 267.417969 L 104.164062 261.65625 C 104.070312 261.625 103.972656 261.613281 103.875 261.613281 L 92.285156 261.613281 C 92.191406 261.613281 92.089844 261.625 92 261.65625 L 74.113281 267.417969 C 73.722656 267.542969 73.460938 267.902344 73.460938 268.308594 L 73.449219 314.789062 C 73.449219 315.039062 73.542969 315.277344 73.722656 315.453125 C 73.902344 315.632812 74.136719 315.730469 74.386719 315.730469 L 121.402344 315.730469 C 121.917969 315.730469 122.339844 315.316406 122.34375 314.796875 L 121.402344 314.789062 L 121.402344 313.855469 L 75.328125 313.855469 L 75.34375 268.996094 L 92.4375 263.492188 L 103.726562 263.492188 L 120.808594 268.992188 L 120.464844 314.78125 L 121.402344 314.789062 L 121.402344 313.855469 L 121.402344 314.789062"/></g><path fill="#99DEF9" d="M 92.488281 262.710938 L 86.429688 264.523438 L 98.28125 291.917969 L 109.710938 264.363281 L 104.0625 262.550781 L 98.269531 277.425781 L 92.488281 262.710938"/><path fill="#00ADEF" d="M 92.488281 262.710938 L 92.21875 261.8125 L 86.160156 263.621094 C 85.902344 263.699219 85.691406 263.882812 85.578125 264.125 C 85.464844 264.367188 85.460938 264.648438 85.566406 264.894531 L 97.421875 292.285156 C 97.570312 292.632812 97.917969 292.855469 98.292969 292.851562 C 98.671875 292.847656 99.007812 292.625 99.152344 292.273438 L 110.574219 264.722656 C 110.675781 264.480469 110.671875 264.207031 110.5625 263.96875 C 110.449219 263.730469 110.246094 263.550781 109.996094 263.46875 L 104.351562 261.65625 C 103.878906 261.503906 103.367188 261.746094 103.1875 262.210938 L 98.265625 274.847656 L 93.359375 262.367188 C 93.183594 261.914062 92.6875 261.671875 92.21875 261.8125 L 92.488281 262.710938 L 91.613281 263.054688 L 97.394531 277.769531 C 97.539062 278.125 97.886719 278.367188 98.273438 278.363281 C 98.65625 278.363281 99.007812 278.125 99.144531 277.769531 L 104.617188 263.714844 L 108.453125 264.941406 L 98.265625 289.507812 L 87.710938 265.117188 L 92.757812 263.613281 L 92.488281 262.710938 L 91.613281 263.054688 L 92.488281 262.710938"/><path fill="#FFF" d="M 103.863281 262.710938 L 98.070312 277.425781 L 92.273438 262.710938 L 92.273438 245.109375 C 92.273438 241.914062 94.871094 239.316406 98.070312 239.316406 C 101.265625 239.316406 103.863281 241.914062 103.863281 245.109375 L 103.863281 262.710938"/><path fill="#00ADEF" d="M 103.863281 262.710938 L 102.988281 262.367188 L 98.070312 274.863281 L 93.214844 262.535156 L 93.214844 245.109375 C 93.214844 243.765625 93.757812 242.558594 94.640625 241.675781 C 95.519531 240.796875 96.730469 240.253906 98.070312 240.253906 C 99.410156 240.253906 100.617188 240.796875 101.5 241.675781 C 102.378906 242.558594 102.925781 243.765625 102.925781 245.109375 L 102.925781 262.710938 L 103.863281 262.710938 L 102.988281 262.367188 L 103.863281 262.710938 L 104.804688 262.710938 L 104.804688 245.109375 C 104.800781 241.394531 101.785156 238.382812 98.070312 238.378906 C 94.351562 238.378906 91.335938 241.394531 91.335938 245.109375 L 91.335938 262.710938 C 91.335938 262.828125 91.359375 262.945312 91.398438 263.058594 L 97.195312 277.769531 C 97.335938 278.128906 97.6875 278.363281 98.070312 278.363281 C 98.457031 278.363281 98.804688 278.125 98.945312 277.769531 L 104.738281 263.054688 C 104.777344 262.945312 104.804688 262.828125 104.804688 262.710938 L 103.863281 262.710938"/><path fill="#FFF" d="M 92.378906 262.980469 L 98.070312 277.425781 L 103.757812 262.980469 Z M 92.378906 262.980469"/><path fill="#00ADEF" d="M 92.378906 262.980469 L 91.507812 263.324219 L 97.195312 277.769531 C 97.335938 278.128906 97.6875 278.363281 98.070312 278.363281 C 98.457031 278.363281 98.804688 278.125 98.945312 277.769531 L 104.632812 263.324219 C 104.746094 263.03125 104.707031 262.707031 104.535156 262.449219 C 104.359375 262.191406 104.070312 262.042969 103.757812 262.042969 L 92.378906 262.042969 C 92.070312 262.042969 91.777344 262.191406 91.605469 262.449219 C 91.429688 262.707031 91.390625 263.03125 91.507812 263.324219 L 92.378906 262.980469 L 92.378906 263.917969 L 102.378906 263.917969 L 98.070312 274.863281 L 93.253906 262.632812 L 92.378906 262.980469 L 92.378906 263.917969 L 92.378906 262.980469"/><path fill="#FFF" d="M 132.84375 220.398438 C 132.84375 239.59375 117.28125 255.15625 98.074219 255.15625 C 78.863281 255.15625 63.292969 239.59375 63.292969 220.398438 L 63.292969 211.304688 C 63.292969 192.109375 78.863281 176.550781 98.074219 176.550781 C 117.28125 176.550781 132.84375 192.109375 132.84375 211.304688 L 132.84375 220.398438"/><path fill="#00ADEF" d="M 132.84375 220.398438 L 131.90625 220.398438 C 131.90625 229.738281 128.121094 238.1875 121.996094 244.3125 C 115.871094 250.433594 107.417969 254.214844 98.074219 254.214844 C 88.722656 254.214844 80.269531 250.433594 74.144531 244.3125 C 68.019531 238.1875 64.234375 229.738281 64.234375 220.398438 L 64.234375 211.304688 C 64.234375 201.960938 68.019531 193.515625 74.144531 187.390625 C 80.269531 181.269531 88.722656 177.488281 98.074219 177.488281 C 107.417969 177.488281 115.871094 181.269531 121.996094 187.390625 C 128.121094 193.515625 131.90625 201.960938 131.90625 211.304688 L 131.90625 220.398438 L 133.785156 220.398438 L 133.785156 211.304688 C 133.785156 191.59375 117.800781 175.609375 98.074219 175.609375 C 78.339844 175.609375 62.355469 191.59375 62.355469 211.304688 L 62.355469 220.398438 C 62.355469 240.113281 78.339844 256.09375 98.074219 256.09375 C 117.800781 256.09375 133.785156 240.113281 133.785156 220.398438 L 132.84375 220.398438"/><path fill="#FFF" d="M 97.113281 227.953125 L 96.027344 234.511719 L 100.109375 234.511719"/><path fill="#00ADEF" d="M 96.183594 227.800781 L 95.101562 234.359375 C 95.054688 234.628906 95.136719 234.910156 95.308594 235.121094 C 95.488281 235.328125 95.75 235.453125 96.027344 235.453125 L 100.109375 235.453125 C 100.632812 235.453125 101.050781 235.03125 101.050781 234.511719 C 101.050781 233.996094 100.632812 233.574219 100.109375 233.574219 L 97.132812 233.574219 L 98.039062 228.109375 C 98.121094 227.597656 97.773438 227.113281 97.261719 227.027344 C 96.753906 226.941406 96.269531 227.289062 96.183594 227.800781"/><path fill="#00ADEF" d="M 82.941406 230.199219 C 82.941406 232.125 81.386719 233.679688 79.464844 233.679688 C 77.539062 233.679688 75.980469 232.125 75.980469 230.199219 C 75.980469 228.28125 77.539062 226.722656 79.464844 226.722656 C 81.386719 226.722656 82.941406 228.28125 82.941406 230.199219"/><path fill="#FFF" d="M 79.464844 229.023438 C 79.464844 229.671875 78.9375 230.199219 78.28125 230.199219 C 77.628906 230.199219 77.101562 229.671875 77.101562 229.023438 C 77.101562 228.375 77.628906 227.84375 78.28125 227.84375 C 78.9375 227.84375 79.464844 228.375 79.464844 229.023438"/><path fill="#00ADEF" d="M 120.15625 230.199219 C 120.15625 232.125 118.597656 233.679688 116.675781 233.679688 C 114.75 233.679688 113.195312 232.125 113.195312 230.199219 C 113.195312 228.28125 114.75 226.722656 116.675781 226.722656 C 118.597656 226.722656 120.15625 228.28125 120.15625 230.199219"/><path fill="#FFF" d="M 116.675781 229.023438 C 116.675781 229.671875 116.148438 230.199219 115.492188 230.199219 C 114.84375 230.199219 114.316406 229.671875 114.316406 229.023438 C 114.316406 228.375 114.84375 227.84375 115.492188 227.84375 C 116.148438 227.84375 116.675781 228.375 116.675781 229.023438"/><path fill="#FFF" d="M 87.765625 242.449219 C 87.765625 242.449219 91.464844 246.523438 98.195312 246.523438 C 105.625 246.523438 108.371094 242.449219 108.371094 242.449219"/><path fill="#00ADEF" d="M 87.070312 243.074219 C 87.121094 243.128906 88.109375 244.210938 89.988281 245.296875 C 91.863281 246.378906 94.640625 247.460938 98.195312 247.460938 C 102.085938 247.464844 104.820312 246.386719 106.574219 245.277344 C 108.328125 244.171875 109.097656 243.050781 109.152344 242.972656 C 109.441406 242.542969 109.324219 241.957031 108.898438 241.667969 C 108.46875 241.378906 107.886719 241.496094 107.59375 241.921875 L 107.78125 242.046875 L 107.597656 241.917969 L 107.59375 241.921875 L 107.78125 242.046875 L 107.597656 241.917969 C 107.570312 241.960938 106.910156 242.875 105.429688 243.777344 C 103.941406 244.683594 101.625 245.585938 98.195312 245.585938 C 95.023438 245.585938 92.582031 244.628906 90.925781 243.671875 C 90.101562 243.195312 89.472656 242.71875 89.054688 242.367188 C 88.847656 242.195312 88.691406 242.046875 88.59375 241.953125 L 88.484375 241.84375 L 88.464844 241.820312 L 88.460938 241.816406 L 88.195312 242.058594 L 88.460938 241.816406 L 88.195312 242.058594 L 88.460938 241.816406 C 88.109375 241.433594 87.519531 241.402344 87.136719 241.753906 C 86.75 242.101562 86.71875 242.691406 87.070312 243.074219"/><path fill="#99DEF9" d="M 132.84375 211.304688 C 132.84375 192.109375 117.28125 176.550781 98.074219 176.550781 C 78.863281 176.550781 63.292969 192.109375 63.292969 211.304688 L 63.292969 220.398438 C 63.292969 225.101562 64.234375 229.585938 65.929688 233.679688 C 65.933594 233.675781 70.074219 230.933594 70.074219 225.4375 C 70.074219 225.4375 70.074219 223.871094 70.074219 219.5625 C 70.074219 215.4375 71.300781 208.421875 78.988281 208.421875 C 85.460938 208.421875 88.722656 215.628906 96.941406 215.628906 L 99.386719 215.628906 C 107.605469 215.628906 110.871094 208.421875 117.34375 208.421875 C 125.027344 208.421875 126.253906 215.4375 126.253906 219.5625 C 126.253906 223.871094 126.253906 225.4375 126.253906 225.4375 C 126.253906 230.324219 129.527344 233.03125 130.25 233.574219 C 131.921875 229.511719 132.84375 225.066406 132.84375 220.398438 L 132.84375 211.304688"/><path fill="#00ADEF" d="M 132.84375 211.304688 L 133.785156 211.304688 C 133.785156 191.59375 117.800781 175.609375 98.074219 175.609375 C 78.339844 175.609375 62.355469 191.59375 62.355469 211.304688 L 62.355469 220.398438 C 62.355469 225.226562 63.320312 229.835938 65.058594 234.039062 C 65.171875 234.304688 65.394531 234.503906 65.675781 234.582031 C 65.949219 234.660156 66.246094 234.609375 66.476562 234.441406 L 65.929688 233.683594 L 66.457031 234.453125 L 66.476562 234.441406 L 65.929688 233.683594 L 66.457031 234.453125 L 66.09375 233.921875 L 66.453125 234.457031 L 66.457031 234.453125 L 66.09375 233.921875 L 66.453125 234.457031 C 66.550781 234.390625 67.667969 233.628906 68.785156 232.140625 C 69.902344 230.648438 71.015625 228.398438 71.011719 225.4375 C 71.011719 225.4375 71.011719 223.871094 71.011719 219.5625 C 71.007812 217.589844 71.324219 214.9375 72.46875 212.902344 C 73.039062 211.882812 73.800781 211.011719 74.839844 210.386719 C 75.875 209.761719 77.207031 209.363281 78.988281 209.363281 C 80.425781 209.363281 81.683594 209.753906 82.945312 210.386719 C 84.832031 211.328125 86.683594 212.835938 88.871094 214.152344 C 91.0625 215.464844 93.648438 216.570312 96.941406 216.566406 L 99.386719 216.566406 C 103.789062 216.570312 106.890625 214.609375 109.546875 212.800781 C 110.882812 211.890625 112.125 211.015625 113.382812 210.386719 C 114.644531 209.753906 115.902344 209.363281 117.34375 209.363281 C 119.121094 209.363281 120.453125 209.761719 121.488281 210.386719 C 123.039062 211.320312 123.992188 212.820312 124.570312 214.527344 C 125.144531 216.21875 125.316406 218.082031 125.3125 219.5625 C 125.3125 223.871094 125.3125 225.4375 125.3125 225.4375 C 125.3125 228.09375 126.210938 230.183594 127.199219 231.65625 C 128.1875 233.132812 129.269531 234.007812 129.691406 234.324219 C 129.925781 234.5 130.222656 234.558594 130.503906 234.480469 C 130.785156 234.398438 131.007812 234.199219 131.121094 233.929688 C 132.835938 229.753906 133.785156 225.191406 133.785156 220.398438 L 133.785156 211.304688 L 131.90625 211.304688 L 131.90625 220.398438 C 131.90625 224.941406 131.007812 229.261719 129.382812 233.21875 L 130.25 233.574219 L 130.8125 232.824219 C 130.507812 232.59375 129.589844 231.847656 128.757812 230.613281 C 127.929688 229.371094 127.195312 227.667969 127.191406 225.4375 C 127.191406 225.4375 127.191406 223.871094 127.191406 219.5625 C 127.1875 217.40625 126.886719 214.492188 125.5 211.988281 C 124.804688 210.738281 123.816406 209.59375 122.464844 208.777344 C 121.105469 207.960938 119.402344 207.480469 117.34375 207.484375 C 115.546875 207.480469 113.96875 207.988281 112.539062 208.707031 C 110.394531 209.792969 108.535156 211.324219 106.492188 212.539062 C 104.441406 213.761719 102.253906 214.683594 99.386719 214.6875 L 96.941406 214.6875 C 95.027344 214.6875 93.421875 214.273438 91.953125 213.640625 C 89.746094 212.691406 87.859375 211.21875 85.859375 209.914062 C 83.863281 208.621094 81.6875 207.484375 78.988281 207.484375 C 76.925781 207.480469 75.222656 207.960938 73.871094 208.777344 C 71.828125 210.011719 70.640625 211.953125 69.980469 213.921875 C 69.3125 215.902344 69.140625 217.945312 69.132812 219.5625 C 69.132812 223.871094 69.132812 225.4375 69.132812 225.4375 C 69.132812 227.945312 68.203125 229.792969 67.253906 231.054688 C 66.78125 231.679688 66.308594 232.148438 65.957031 232.460938 C 65.78125 232.613281 65.636719 232.726562 65.542969 232.800781 L 65.40625 232.898438 L 65.398438 232.90625 L 65.375 232.921875 L 65.929688 233.679688 L 66.792969 233.320312 C 65.144531 229.339844 64.234375 224.976562 64.234375 220.398438 L 64.234375 211.304688 C 64.234375 201.960938 68.019531 193.515625 74.144531 187.390625 C 80.269531 181.269531 88.722656 177.488281 98.074219 177.488281 C 107.417969 177.488281 115.871094 181.269531 121.996094 187.390625 C 128.121094 193.515625 131.90625 201.960938 131.90625 211.304688 L 132.84375 211.304688"/><path fill="#FFF" d="M 132.449219 206.320312 L 132.449219 183.894531 C 132.449219 178.179688 128.007812 173.546875 122.527344 173.546875 L 73.609375 173.546875 C 68.132812 173.546875 63.6875 178.179688 63.6875 183.894531 L 63.6875 206.320312 L 132.449219 206.320312"/><path fill="#00ADEF" d="M 132.449219 206.320312 L 133.390625 206.320312 L 133.390625 183.894531 C 133.390625 180.792969 132.183594 177.972656 130.222656 175.929688 C 128.265625 173.882812 125.53125 172.605469 122.527344 172.605469 L 73.609375 172.605469 C 70.605469 172.605469 67.875 173.882812 65.914062 175.929688 C 63.953125 177.972656 62.75 180.792969 62.75 183.894531 L 62.75 206.320312 C 62.75 206.566406 62.851562 206.804688 63.027344 206.980469 C 63.199219 207.15625 63.441406 207.253906 63.6875 207.253906 L 132.449219 207.253906 C 132.699219 207.253906 132.941406 207.15625 133.113281 206.980469 C 133.289062 206.804688 133.390625 206.566406 133.390625 206.320312 L 132.449219 206.320312 L 132.449219 205.378906 L 64.628906 205.378906 L 64.628906 183.894531 C 64.628906 181.28125 65.640625 178.925781 67.273438 177.222656 C 68.90625 175.527344 71.136719 174.484375 73.609375 174.480469 L 122.527344 174.480469 C 125 174.484375 127.230469 175.527344 128.863281 177.222656 C 130.496094 178.925781 131.511719 181.28125 131.511719 183.894531 L 131.511719 206.320312 L 132.449219 206.320312 L 132.449219 205.378906 L 132.449219 206.320312"/><path fill="#99DEF9" d="M 63.6875 191.796875 L 63.6875 200.648438 L 132.449219 200.648438 L 132.449219 191.796875 L 63.6875 191.796875"/><path fill="#00ADEF" d="M 63.6875 191.796875 L 62.75 191.796875 L 62.75 200.648438 C 62.75 200.894531 62.851562 201.132812 63.027344 201.308594 C 63.199219 201.484375 63.441406 201.585938 63.6875 201.585938 L 132.449219 201.585938 C 132.699219 201.585938 132.941406 201.484375 133.113281 201.308594 C 133.289062 201.132812 133.390625 200.894531 133.390625 200.648438 L 133.390625 191.796875 C 133.390625 191.550781 133.289062 191.308594 133.113281 191.136719 C 132.941406 190.960938 132.699219 190.859375 132.449219 190.859375 L 63.6875 190.859375 C 63.441406 190.859375 63.199219 190.960938 63.027344 191.136719 C 62.851562 191.308594 62.75 191.550781 62.75 191.796875 L 63.6875 191.796875 L 63.6875 192.738281 L 131.511719 192.738281 L 131.511719 199.707031 L 64.628906 199.707031 L 64.628906 191.796875 L 63.6875 191.796875 L 63.6875 192.738281 L 63.6875 191.796875"/><path fill="#99DEF9" d="M 98.070312 262.980469 L 107.089844 258.675781 L 107.089844 267.28125 L 98.070312 262.980469"/><path fill="#00ADEF" d="M 98.070312 262.980469 L 98.472656 263.828125 L 102.984375 261.675781 L 106.152344 260.164062 L 106.152344 265.796875 L 102.984375 264.285156 L 98.472656 262.132812 L 98.070312 262.980469 L 98.472656 263.828125 L 98.070312 262.980469 L 97.664062 263.828125 L 102.175781 265.980469 L 106.6875 268.128906 C 106.976562 268.269531 107.320312 268.246094 107.59375 268.078125 C 107.863281 267.902344 108.03125 267.605469 108.03125 267.28125 L 108.03125 258.675781 C 108.03125 258.355469 107.863281 258.054688 107.59375 257.886719 C 107.320312 257.710938 106.976562 257.691406 106.6875 257.832031 L 102.175781 259.980469 L 97.664062 262.132812 C 97.335938 262.289062 97.128906 262.617188 97.128906 262.980469 C 97.128906 263.339844 97.335938 263.667969 97.664062 263.828125 L 98.070312 262.980469"/><path fill="#99DEF9" d="M 98.070312 262.980469 L 93.5625 260.828125 L 89.046875 258.675781 L 89.046875 267.28125 L 93.5625 265.128906 L 98.070312 262.980469"/><path fill="#00ADEF" d="M 98.070312 262.980469 L 98.472656 262.132812 L 93.964844 259.984375 L 89.449219 257.832031 C 89.160156 257.691406 88.824219 257.710938 88.546875 257.886719 C 88.273438 258.054688 88.109375 258.355469 88.109375 258.675781 L 88.109375 267.28125 C 88.109375 267.605469 88.273438 267.902344 88.546875 268.078125 C 88.824219 268.246094 89.160156 268.269531 89.449219 268.128906 L 93.964844 265.980469 L 98.472656 263.828125 C 98.800781 263.667969 99.007812 263.339844 99.007812 262.980469 C 99.007812 262.617188 98.800781 262.289062 98.472656 262.132812 L 98.070312 262.980469 L 97.664062 262.132812 L 93.15625 264.285156 L 89.988281 265.796875 L 89.988281 260.164062 L 93.15625 261.675781 L 97.664062 263.828125 L 98.070312 262.980469 L 97.664062 262.132812 L 98.070312 262.980469"/><path fill="#FFF" d="M 105.058594 296.160156 C 105.058594 297.074219 104.316406 297.820312 103.402344 297.820312 C 102.480469 297.820312 101.738281 297.074219 101.738281 296.160156 C 101.738281 295.246094 102.480469 294.5 103.402344 294.5 C 104.316406 294.5 105.058594 295.246094 105.058594 296.160156"/><path fill="#00ADEF" d="M 105.058594 296.160156 L 104.121094 296.160156 C 104.121094 296.554688 103.796875 296.878906 103.402344 296.878906 C 103 296.878906 102.675781 296.558594 102.675781 296.160156 C 102.675781 295.765625 103 295.441406 103.402344 295.441406 C 103.796875 295.441406 104.121094 295.765625 104.121094 296.160156 L 106 296.160156 C 106 294.726562 104.832031 293.5625 103.402344 293.5625 C 101.964844 293.5625 100.796875 294.726562 100.796875 296.160156 C 100.796875 297.597656 101.964844 298.757812 103.402344 298.757812 C 104.832031 298.757812 106 297.597656 106 296.160156 L 105.058594 296.160156"/><path fill="#FFF" d="M 105.058594 302.796875 C 105.058594 303.714844 104.316406 304.457031 103.402344 304.457031 C 102.480469 304.457031 101.738281 303.714844 101.738281 302.796875 C 101.738281 301.882812 102.480469 301.136719 103.402344 301.136719 C 104.316406 301.136719 105.058594 301.882812 105.058594 302.796875"/><path fill="#00ADEF" d="M 105.058594 302.796875 L 104.121094 302.796875 C 104.121094 303.191406 103.796875 303.519531 103.402344 303.519531 C 103 303.519531 102.675781 303.191406 102.675781 302.796875 C 102.675781 302.398438 103 302.078125 103.402344 302.078125 C 103.796875 302.078125 104.121094 302.398438 104.121094 302.796875 L 106 302.796875 C 106 301.363281 104.832031 300.199219 103.402344 300.199219 C 101.964844 300.199219 100.796875 301.363281 100.796875 302.796875 C 100.796875 304.234375 101.964844 305.394531 103.402344 305.394531 C 104.832031 305.394531 106 304.234375 106 302.796875 L 105.058594 302.796875"/><path fill="#FFF" d="M 105.058594 309.429688 C 105.058594 310.351562 104.316406 311.089844 103.402344 311.089844 C 102.480469 311.089844 101.738281 310.351562 101.738281 309.429688 C 101.738281 308.515625 102.480469 307.773438 103.402344 307.773438 C 104.316406 307.773438 105.058594 308.515625 105.058594 309.429688"/><path fill="#00ADEF" d="M 105.058594 309.429688 L 104.121094 309.429688 C 104.121094 309.832031 103.796875 310.15625 103.402344 310.15625 C 103 310.15625 102.675781 309.832031 102.675781 309.429688 C 102.675781 309.035156 103 308.710938 103.402344 308.710938 C 103.796875 308.710938 104.121094 309.035156 104.121094 309.429688 L 106 309.429688 C 106 308 104.835938 306.835938 103.402344 306.835938 C 101.964844 306.835938 100.796875 308 100.796875 309.429688 C 100.796875 310.871094 101.964844 312.03125 103.402344 312.03125 C 104.832031 312.03125 106 310.871094 106 309.429688 L 105.058594 309.429688"/><path fill="#FFF" d="M 94.398438 296.160156 C 94.398438 297.074219 93.65625 297.820312 92.742188 297.820312 C 91.820312 297.820312 91.078125 297.074219 91.078125 296.160156 C 91.078125 295.246094 91.820312 294.5 92.742188 294.5 C 93.65625 294.5 94.398438 295.246094 94.398438 296.160156"/><path fill="#00ADEF" d="M 94.398438 296.160156 L 93.460938 296.160156 C 93.460938 296.558594 93.136719 296.878906 92.742188 296.878906 C 92.339844 296.878906 92.015625 296.558594 92.015625 296.160156 C 92.015625 295.765625 92.339844 295.441406 92.742188 295.441406 C 93.136719 295.441406 93.460938 295.765625 93.460938 296.160156 L 95.339844 296.160156 C 95.339844 294.726562 94.171875 293.5625 92.742188 293.5625 C 91.304688 293.5625 90.136719 294.726562 90.136719 296.160156 C 90.136719 297.597656 91.304688 298.757812 92.742188 298.757812 C 94.171875 298.757812 95.339844 297.597656 95.339844 296.160156 L 94.398438 296.160156"/><path fill="#FFF" d="M 94.398438 302.796875 C 94.398438 303.714844 93.65625 304.457031 92.742188 304.457031 C 91.820312 304.457031 91.078125 303.714844 91.078125 302.796875 C 91.078125 301.882812 91.820312 301.136719 92.742188 301.136719 C 93.65625 301.136719 94.398438 301.882812 94.398438 302.796875"/><path fill="#00ADEF" d="M 94.398438 302.796875 L 93.460938 302.796875 C 93.460938 303.191406 93.136719 303.519531 92.742188 303.519531 C 92.339844 303.519531 92.015625 303.195312 92.015625 302.796875 C 92.015625 302.398438 92.335938 302.078125 92.742188 302.078125 C 93.136719 302.078125 93.460938 302.398438 93.460938 302.796875 L 95.339844 302.796875 C 95.339844 301.363281 94.171875 300.199219 92.742188 300.199219 C 91.304688 300.199219 90.136719 301.363281 90.136719 302.796875 C 90.136719 304.234375 91.304688 305.394531 92.742188 305.394531 C 94.171875 305.394531 95.339844 304.234375 95.339844 302.796875 L 94.398438 302.796875"/><path fill="#FFF" d="M 94.398438 309.429688 C 94.398438 310.351562 93.65625 311.089844 92.742188 311.089844 C 91.820312 311.089844 91.078125 310.351562 91.078125 309.429688 C 91.078125 308.515625 91.820312 307.773438 92.742188 307.773438 C 93.65625 307.773438 94.398438 308.515625 94.398438 309.429688"/><path fill="#00ADEF" d="M 94.398438 309.429688 L 93.460938 309.429688 C 93.460938 309.832031 93.136719 310.15625 92.742188 310.15625 C 92.339844 310.15625 92.015625 309.832031 92.015625 309.429688 C 92.015625 309.035156 92.339844 308.710938 92.742188 308.710938 C 93.136719 308.710938 93.460938 309.035156 93.460938 309.429688 L 95.339844 309.429688 C 95.339844 308 94.175781 306.835938 92.742188 306.835938 C 91.300781 306.835938 90.136719 308 90.136719 309.429688 C 90.136719 310.871094 91.304688 312.03125 92.742188 312.03125 C 94.171875 312.03125 95.339844 310.871094 95.339844 309.429688 L 94.398438 309.429688"/></svg>