<?xml version="1.0" encoding="UTF-8"?><svg xmlns="http://www.w3.org/2000/svg" xmlns:xlink="http://www.w3.org/1999/xlink" width="375pt" zoomAndPan="magnify" viewBox="0 0 375 374.999991" height="374.999991pt" preserveAspectRatio="xMidYMid meet" version="1.2"><defs><g/><clipPath xml:id="clip1" id="clip1"><path d="M 271.683594 7.394531 L 294.933594 7.394531 L 294.933594 30.644531 L 271.683594 30.644531 Z M 271.683594 7.394531 "/></clipPath><clipPath xml:id="clip2" id="clip2"><path d="M 241.246094 13.59375 L 261.496094 13.59375 L 261.496094 33.84375 L 241.246094 33.84375 Z M 241.246094 13.59375 "/></clipPath><clipPath xml:id="clip3" id="clip3"><path d="M 217.832031 25.894531 L 233.582031 25.894531 L 233.582031 41.644531 L 217.832031 41.644531 Z M 217.832031 25.894531 "/></clipPath><clipPath xml:id="clip4" id="clip4"><path d="M 198.78125 37.367188 L 213.78125 37.367188 L 213.78125 52.367188 L 198.78125 52.367188 Z M 198.78125 37.367188 "/></clipPath><clipPath xml:id="clip5" id="clip5"><path d="M 187.417969 53.476562 L 197.917969 53.476562 L 197.917969 63.976562 L 187.417969 63.976562 Z M 187.417969 53.476562 "/></clipPath><clipPath xml:id="clip6" id="clip6"><path d="M 176.820312 67.707031 L 187.320312 67.707031 L 187.320312 78.207031 L 176.820312 78.207031 Z M 176.820312 67.707031 "/></clipPath><clipPath xml:id="clip7" id="clip7"><path d="M 308.863281 35.648438 L 338.863281 35.648438 L 338.863281 65.648438 L 308.863281 65.648438 Z M 308.863281 35.648438 "/></clipPath><clipPath xml:id="clip8" id="clip8"><path d="M 274.0625 37.367188 L 295.8125 37.367188 L 295.8125 59.117188 L 274.0625 59.117188 Z M 274.0625 37.367188 "/></clipPath><clipPath xml:id="clip9" id="clip9"><path d="M 243.972656 41.769531 L 264.222656 41.769531 L 264.222656 62.019531 L 243.972656 62.019531 Z M 243.972656 41.769531 "/></clipPath><clipPath xml:id="clip10" id="clip10"><path d="M 219.207031 53.476562 L 235.707031 53.476562 L 235.707031 69.976562 L 219.207031 69.976562 Z M 219.207031 53.476562 "/></clipPath><clipPath xml:id="clip11" id="clip11"><path d="M 189.558594 81.863281 L 200.058594 81.863281 L 200.058594 92.363281 L 189.558594 92.363281 Z M 189.558594 81.863281 "/></clipPath><clipPath xml:id="clip12" id="clip12"><path d="M 201.722656 65.640625 L 216.722656 65.640625 L 216.722656 80.640625 L 201.722656 80.640625 Z M 201.722656 65.640625 "/></clipPath><clipPath xml:id="clip13" id="clip13"><path d="M 198.78125 102.519531 L 209.28125 102.519531 L 209.28125 113.019531 L 198.78125 113.019531 Z M 198.78125 102.519531 "/></clipPath><clipPath xml:id="clip14" id="clip14"><path d="M 216.453125 89.1875 L 228.453125 89.1875 L 228.453125 101.1875 L 216.453125 101.1875 Z M 216.453125 89.1875 "/></clipPath><clipPath xml:id="clip15" id="clip15"><path d="M 239.140625 77.367188 L 258.640625 77.367188 L 258.640625 96.867188 L 239.140625 96.867188 Z M 239.140625 77.367188 "/></clipPath><clipPath xml:id="clip16" id="clip16"><path d="M 271.683594 70.183594 L 294.183594 70.183594 L 294.183594 92.683594 L 271.683594 92.683594 Z M 271.683594 70.183594 "/></clipPath><clipPath xml:id="clip17" id="clip17"><path d="M 306.570312 73.003906 L 332.070312 73.003906 L 332.070312 98.503906 L 306.570312 98.503906 Z M 306.570312 73.003906 "/></clipPath><clipPath xml:id="clip18" id="clip18"><path d="M 346.503906 85.226562 L 375 85.226562 L 375 113.726562 L 346.503906 113.726562 Z M 346.503906 85.226562 "/></clipPath><clipPath xml:id="clip19" id="clip19"><path d="M 187.675781 264.078125 L 198.175781 264.078125 L 198.175781 274.578125 L 187.675781 274.578125 Z M 187.675781 264.078125 "/></clipPath><clipPath xml:id="clip20" id="clip20"><path d="M 80.066406 311.640625 L 103.316406 311.640625 L 103.316406 334.890625 L 80.066406 334.890625 Z M 80.066406 311.640625 "/></clipPath><clipPath xml:id="clip21" id="clip21"><path d="M 113.503906 308.445312 L 133.753906 308.445312 L 133.753906 328.695312 L 113.503906 328.695312 Z M 113.503906 308.445312 "/></clipPath><clipPath xml:id="clip22" id="clip22"><path d="M 141.410156 300.636719 L 157.160156 300.636719 L 157.160156 316.386719 L 141.410156 316.386719 Z M 141.410156 300.636719 "/></clipPath><clipPath xml:id="clip23" id="clip23"><path d="M 161.207031 289.910156 L 176.207031 289.910156 L 176.207031 304.910156 L 161.207031 304.910156 Z M 161.207031 289.910156 "/></clipPath><clipPath xml:id="clip24" id="clip24"><path d="M 177.078125 278.308594 L 187.578125 278.308594 L 187.578125 288.808594 L 177.078125 288.808594 Z M 177.078125 278.308594 "/></clipPath><clipPath xml:id="clip25" id="clip25"><path d="M 36.132812 276.636719 L 66.132812 276.636719 L 66.132812 306.636719 L 36.132812 306.636719 Z M 36.132812 276.636719 "/></clipPath><clipPath xml:id="clip26" id="clip26"><path d="M 79.183594 283.164062 L 100.933594 283.164062 L 100.933594 304.914062 L 79.183594 304.914062 Z M 79.183594 283.164062 "/></clipPath><clipPath xml:id="clip27" id="clip27"><path d="M 110.773438 280.265625 L 131.023438 280.265625 L 131.023438 300.515625 L 110.773438 300.515625 Z M 110.773438 280.265625 "/></clipPath><clipPath xml:id="clip28" id="clip28"><path d="M 139.28125 272.304688 L 155.78125 272.304688 L 155.78125 288.804688 L 139.28125 288.804688 Z M 139.28125 272.304688 "/></clipPath><clipPath xml:id="clip29" id="clip29"><path d="M 174.9375 249.921875 L 185.4375 249.921875 L 185.4375 260.421875 L 174.9375 260.421875 Z M 174.9375 249.921875 "/></clipPath><clipPath xml:id="clip30" id="clip30"><path d="M 158.265625 261.636719 L 173.265625 261.636719 L 173.265625 276.636719 L 158.265625 276.636719 Z M 158.265625 261.636719 "/></clipPath><clipPath xml:id="clip31" id="clip31"><path d="M 165.714844 233.484375 L 176.214844 233.484375 L 176.214844 243.984375 L 165.714844 243.984375 Z M 165.714844 233.484375 "/></clipPath><clipPath xml:id="clip32" id="clip32"><path d="M 146.539062 241.09375 L 158.539062 241.09375 L 158.539062 253.09375 L 146.539062 253.09375 Z M 146.539062 241.09375 "/></clipPath><clipPath xml:id="clip33" id="clip33"><path d="M 116.351562 245.417969 L 135.851562 245.417969 L 135.851562 264.917969 L 116.351562 264.917969 Z M 116.351562 245.417969 "/></clipPath><clipPath xml:id="clip34" id="clip34"><path d="M 80.808594 249.59375 L 103.308594 249.59375 L 103.308594 272.09375 L 80.808594 272.09375 Z M 80.808594 249.59375 "/></clipPath><clipPath xml:id="clip35" id="clip35"><path d="M 42.925781 243.78125 L 68.425781 243.78125 L 68.425781 269.28125 L 42.925781 269.28125 Z M 42.925781 243.78125 "/></clipPath><clipPath xml:id="clip36" id="clip36"><path d="M 0 228.554688 L 28.488281 228.554688 L 28.488281 257.054688 L 0 257.054688 Z M 0 228.554688 "/></clipPath></defs><g xml:id="surface1" id="surface1"><g clip-rule="nonzero" clip-path="url(#clip1)"><path style=" stroke:none;fill-rule:nonzero;fill:rgb(75.289917%,75.289917%,75.289917%);fill-opacity:1;" d="M 283.308594 7.394531 C 276.886719 7.394531 271.683594 12.601562 271.683594 19.019531 C 271.683594 25.441406 276.886719 30.644531 283.308594 30.644531 C 289.726562 30.644531 294.933594 25.441406 294.933594 19.019531 C 294.933594 12.601562 289.726562 7.394531 283.308594 7.394531 Z M 283.308594 7.394531 "/></g><g style="fill:rgb(75.289917%,75.289917%,75.289917%);fill-opacity:1;"><g transform="translate(219.20813, 211.199437)"><path style="stroke:none;" d="M 65.1875 -71.234375 L 37.375 -71.234375 L 37.375 0 L 29.671875 0 L 29.671875 -71.234375 L 1.875 -71.234375 L 1.875 -78.046875 L 65.1875 -78.046875 Z M 65.1875 -71.234375 "/></g></g><g clip-rule="nonzero" clip-path="url(#clip2)"><path style=" stroke:none;fill-rule:nonzero;fill:rgb(75.289917%,75.289917%,75.289917%);fill-opacity:1;" d="M 251.371094 13.59375 C 245.78125 13.59375 241.246094 18.125 241.246094 23.71875 C 241.246094 29.308594 245.78125 33.84375 251.371094 33.84375 C 256.960938 33.84375 261.496094 29.308594 261.496094 23.71875 C 261.496094 18.125 256.960938 13.59375 251.371094 13.59375 Z M 251.371094 13.59375 "/></g><g clip-rule="nonzero" clip-path="url(#clip3)"><path style=" stroke:none;fill-rule:nonzero;fill:rgb(75.289917%,75.289917%,75.289917%);fill-opacity:1;" d="M 225.707031 25.894531 C 221.355469 25.894531 217.832031 29.417969 217.832031 33.769531 C 217.832031 38.117188 221.355469 41.644531 225.707031 41.644531 C 230.054688 41.644531 233.582031 38.117188 233.582031 33.769531 C 233.582031 29.417969 230.054688 25.894531 225.707031 25.894531 Z M 225.707031 25.894531 "/></g><g clip-rule="nonzero" clip-path="url(#clip4)"><path style=" stroke:none;fill-rule:nonzero;fill:rgb(75.289917%,75.289917%,75.289917%);fill-opacity:1;" d="M 206.28125 37.367188 C 202.140625 37.367188 198.78125 40.726562 198.78125 44.867188 C 198.78125 49.011719 202.140625 52.367188 206.28125 52.367188 C 210.421875 52.367188 213.78125 49.011719 213.78125 44.867188 C 213.78125 40.726562 210.421875 37.367188 206.28125 37.367188 Z M 206.28125 37.367188 "/></g><g clip-rule="nonzero" clip-path="url(#clip5)"><path style=" stroke:none;fill-rule:nonzero;fill:rgb(75.289917%,75.289917%,75.289917%);fill-opacity:1;" d="M 192.667969 53.476562 C 189.769531 53.476562 187.417969 55.828125 187.417969 58.726562 C 187.417969 61.625 189.769531 63.976562 192.667969 63.976562 C 195.566406 63.976562 197.917969 61.625 197.917969 58.726562 C 197.917969 55.828125 195.566406 53.476562 192.667969 53.476562 Z M 192.667969 53.476562 "/></g><g clip-rule="nonzero" clip-path="url(#clip6)"><path style=" stroke:none;fill-rule:nonzero;fill:rgb(75.289917%,75.289917%,75.289917%);fill-opacity:1;" d="M 182.070312 67.707031 C 179.167969 67.707031 176.820312 70.058594 176.820312 72.957031 C 176.820312 75.855469 179.167969 78.207031 182.070312 78.207031 C 184.96875 78.207031 187.320312 75.855469 187.320312 72.957031 C 187.320312 70.058594 184.96875 67.707031 182.070312 67.707031 Z M 182.070312 67.707031 "/></g><g clip-rule="nonzero" clip-path="url(#clip7)"><path style=" stroke:none;fill-rule:nonzero;fill:rgb(75.289917%,75.289917%,75.289917%);fill-opacity:1;" d="M 323.863281 35.648438 C 315.582031 35.648438 308.863281 42.363281 308.863281 50.648438 C 308.863281 58.929688 315.582031 65.648438 323.863281 65.648438 C 332.148438 65.648438 338.863281 58.929688 338.863281 50.648438 C 338.863281 42.363281 332.148438 35.648438 323.863281 35.648438 Z M 323.863281 35.648438 "/></g><g clip-rule="nonzero" clip-path="url(#clip8)"><path style=" stroke:none;fill-rule:nonzero;fill:rgb(75.289917%,75.289917%,75.289917%);fill-opacity:1;" d="M 284.9375 37.367188 C 278.933594 37.367188 274.0625 42.238281 274.0625 48.242188 C 274.0625 54.25 278.933594 59.117188 284.9375 59.117188 C 290.945312 59.117188 295.8125 54.25 295.8125 48.242188 C 295.8125 42.238281 290.945312 37.367188 284.9375 37.367188 Z M 284.9375 37.367188 "/></g><g clip-rule="nonzero" clip-path="url(#clip9)"><path style=" stroke:none;fill-rule:nonzero;fill:rgb(75.289917%,75.289917%,75.289917%);fill-opacity:1;" d="M 254.097656 41.769531 C 248.503906 41.769531 243.972656 46.304688 243.972656 51.894531 C 243.972656 57.488281 248.503906 62.019531 254.097656 62.019531 C 259.6875 62.019531 264.222656 57.488281 264.222656 51.894531 C 264.222656 46.304688 259.6875 41.769531 254.097656 41.769531 Z M 254.097656 41.769531 "/></g><g clip-rule="nonzero" clip-path="url(#clip10)"><path style=" stroke:none;fill-rule:nonzero;fill:rgb(75.289917%,75.289917%,75.289917%);fill-opacity:1;" d="M 227.457031 53.476562 C 222.902344 53.476562 219.207031 57.167969 219.207031 61.726562 C 219.207031 66.28125 222.902344 69.976562 227.457031 69.976562 C 232.015625 69.976562 235.707031 66.28125 235.707031 61.726562 C 235.707031 57.167969 232.015625 53.476562 227.457031 53.476562 Z M 227.457031 53.476562 "/></g><g clip-rule="nonzero" clip-path="url(#clip11)"><path style=" stroke:none;fill-rule:nonzero;fill:rgb(75.289917%,75.289917%,75.289917%);fill-opacity:1;" d="M 194.808594 81.863281 C 191.910156 81.863281 189.558594 84.210938 189.558594 87.113281 C 189.558594 90.011719 191.910156 92.363281 194.808594 92.363281 C 197.707031 92.363281 200.058594 90.011719 200.058594 87.113281 C 200.058594 84.210938 197.707031 81.863281 194.808594 81.863281 Z M 194.808594 81.863281 "/></g><g clip-rule="nonzero" clip-path="url(#clip12)"><path style=" stroke:none;fill-rule:nonzero;fill:rgb(75.289917%,75.289917%,75.289917%);fill-opacity:1;" d="M 209.222656 65.640625 C 205.082031 65.640625 201.722656 69 201.722656 73.140625 C 201.722656 77.28125 205.082031 80.640625 209.222656 80.640625 C 213.367188 80.640625 216.722656 77.28125 216.722656 73.140625 C 216.722656 69 213.367188 65.640625 209.222656 65.640625 Z M 209.222656 65.640625 "/></g><g clip-rule="nonzero" clip-path="url(#clip13)"><path style=" stroke:none;fill-rule:nonzero;fill:rgb(75.289917%,75.289917%,75.289917%);fill-opacity:1;" d="M 204.03125 102.519531 C 201.132812 102.519531 198.78125 104.871094 198.78125 107.769531 C 198.78125 110.667969 201.132812 113.019531 204.03125 113.019531 C 206.929688 113.019531 209.28125 110.667969 209.28125 107.769531 C 209.28125 104.871094 206.929688 102.519531 204.03125 102.519531 Z M 204.03125 102.519531 "/></g><g clip-rule="nonzero" clip-path="url(#clip14)"><path style=" stroke:none;fill-rule:nonzero;fill:rgb(75.289917%,75.289917%,75.289917%);fill-opacity:1;" d="M 222.453125 89.1875 C 219.140625 89.1875 216.453125 91.871094 216.453125 95.1875 C 216.453125 98.5 219.140625 101.1875 222.453125 101.1875 C 225.765625 101.1875 228.453125 98.5 228.453125 95.1875 C 228.453125 91.871094 225.765625 89.1875 222.453125 89.1875 Z M 222.453125 89.1875 "/></g><g clip-rule="nonzero" clip-path="url(#clip15)"><path style=" stroke:none;fill-rule:nonzero;fill:rgb(75.289917%,75.289917%,75.289917%);fill-opacity:1;" d="M 248.890625 77.367188 C 243.507812 77.367188 239.140625 81.734375 239.140625 87.117188 C 239.140625 92.5 243.507812 96.867188 248.890625 96.867188 C 254.277344 96.867188 258.640625 92.5 258.640625 87.117188 C 258.640625 81.734375 254.277344 77.367188 248.890625 77.367188 Z M 248.890625 77.367188 "/></g><g clip-rule="nonzero" clip-path="url(#clip16)"><path style=" stroke:none;fill-rule:nonzero;fill:rgb(75.289917%,75.289917%,75.289917%);fill-opacity:1;" d="M 282.933594 70.183594 C 276.71875 70.183594 271.683594 75.222656 271.683594 81.433594 C 271.683594 87.648438 276.71875 92.683594 282.933594 92.683594 C 289.144531 92.683594 294.183594 87.648438 294.183594 81.433594 C 294.183594 75.222656 289.144531 70.183594 282.933594 70.183594 Z M 282.933594 70.183594 "/></g><g clip-rule="nonzero" clip-path="url(#clip17)"><path style=" stroke:none;fill-rule:nonzero;fill:rgb(75.289917%,75.289917%,75.289917%);fill-opacity:1;" d="M 319.320312 73.003906 C 312.277344 73.003906 306.570312 78.714844 306.570312 85.753906 C 306.570312 92.796875 312.277344 98.503906 319.320312 98.503906 C 326.359375 98.503906 332.070312 92.796875 332.070312 85.753906 C 332.070312 78.714844 326.359375 73.003906 319.320312 73.003906 Z M 319.320312 73.003906 "/></g><g clip-rule="nonzero" clip-path="url(#clip18)"><path style=" stroke:none;fill-rule:nonzero;fill:rgb(75.289917%,75.289917%,75.289917%);fill-opacity:1;" d="M 360.753906 85.226562 C 352.886719 85.226562 346.503906 91.609375 346.503906 99.476562 C 346.503906 107.347656 352.886719 113.726562 360.753906 113.726562 C 368.625 113.726562 375.003906 107.347656 375.003906 99.476562 C 375.003906 91.609375 368.625 85.226562 360.753906 85.226562 Z M 360.753906 85.226562 "/></g><g clip-rule="nonzero" clip-path="url(#clip19)"><path style=" stroke:none;fill-rule:nonzero;fill:rgb(75.289917%,75.289917%,75.289917%);fill-opacity:1;" d="M 192.925781 274.578125 C 195.824219 274.578125 198.175781 272.226562 198.175781 269.328125 C 198.175781 266.429688 195.824219 264.078125 192.925781 264.078125 C 190.027344 264.078125 187.675781 266.429688 187.675781 269.328125 C 187.675781 272.226562 190.027344 274.578125 192.925781 274.578125 Z M 192.925781 274.578125 "/></g><g clip-rule="nonzero" clip-path="url(#clip20)"><path style=" stroke:none;fill-rule:nonzero;fill:rgb(75.289917%,75.289917%,75.289917%);fill-opacity:1;" d="M 91.691406 334.890625 C 98.109375 334.890625 103.316406 329.6875 103.316406 323.265625 C 103.316406 316.847656 98.109375 311.640625 91.691406 311.640625 C 85.269531 311.640625 80.066406 316.847656 80.066406 323.265625 C 80.066406 329.6875 85.269531 334.890625 91.691406 334.890625 Z M 91.691406 334.890625 "/></g><g clip-rule="nonzero" clip-path="url(#clip21)"><path style=" stroke:none;fill-rule:nonzero;fill:rgb(75.289917%,75.289917%,75.289917%);fill-opacity:1;" d="M 123.628906 328.695312 C 129.21875 328.695312 133.753906 324.164062 133.753906 318.570312 C 133.753906 312.980469 129.21875 308.445312 123.628906 308.445312 C 118.039062 308.445312 113.503906 312.980469 113.503906 318.570312 C 113.503906 324.164062 118.039062 328.695312 123.628906 328.695312 Z M 123.628906 328.695312 "/></g><g clip-rule="nonzero" clip-path="url(#clip22)"><path style=" stroke:none;fill-rule:nonzero;fill:rgb(75.289917%,75.289917%,75.289917%);fill-opacity:1;" d="M 149.285156 316.386719 C 153.632812 316.386719 157.160156 312.859375 157.160156 308.511719 C 157.160156 304.164062 153.632812 300.636719 149.285156 300.636719 C 144.933594 300.636719 141.410156 304.164062 141.410156 308.511719 C 141.410156 312.859375 144.933594 316.386719 149.285156 316.386719 Z M 149.285156 316.386719 "/></g><g clip-rule="nonzero" clip-path="url(#clip23)"><path style=" stroke:none;fill-rule:nonzero;fill:rgb(75.289917%,75.289917%,75.289917%);fill-opacity:1;" d="M 168.707031 304.910156 C 172.851562 304.910156 176.207031 301.550781 176.207031 297.410156 C 176.207031 293.269531 172.851562 289.910156 168.707031 289.910156 C 164.566406 289.910156 161.207031 293.269531 161.207031 297.410156 C 161.207031 301.550781 164.566406 304.910156 168.707031 304.910156 Z M 168.707031 304.910156 "/></g><g clip-rule="nonzero" clip-path="url(#clip24)"><path style=" stroke:none;fill-rule:nonzero;fill:rgb(75.289917%,75.289917%,75.289917%);fill-opacity:1;" d="M 182.328125 288.808594 C 185.226562 288.808594 187.578125 286.457031 187.578125 283.558594 C 187.578125 280.660156 185.226562 278.308594 182.328125 278.308594 C 179.429688 278.308594 177.078125 280.660156 177.078125 283.558594 C 177.078125 286.457031 179.429688 288.808594 182.328125 288.808594 Z M 182.328125 288.808594 "/></g><g clip-rule="nonzero" clip-path="url(#clip25)"><path style=" stroke:none;fill-rule:nonzero;fill:rgb(75.289917%,75.289917%,75.289917%);fill-opacity:1;" d="M 51.132812 306.636719 C 59.414062 306.636719 66.132812 299.921875 66.132812 291.636719 C 66.132812 283.355469 59.414062 276.636719 51.132812 276.636719 C 42.847656 276.636719 36.132812 283.355469 36.132812 291.636719 C 36.132812 299.921875 42.847656 306.636719 51.132812 306.636719 Z M 51.132812 306.636719 "/></g><g clip-rule="nonzero" clip-path="url(#clip26)"><path style=" stroke:none;fill-rule:nonzero;fill:rgb(75.289917%,75.289917%,75.289917%);fill-opacity:1;" d="M 90.058594 304.914062 C 96.0625 304.914062 100.933594 300.046875 100.933594 294.039062 C 100.933594 288.035156 96.0625 283.164062 90.058594 283.164062 C 84.050781 283.164062 79.183594 288.035156 79.183594 294.039062 C 79.183594 300.046875 84.050781 304.914062 90.058594 304.914062 Z M 90.058594 304.914062 "/></g><g clip-rule="nonzero" clip-path="url(#clip27)"><path style=" stroke:none;fill-rule:nonzero;fill:rgb(75.289917%,75.289917%,75.289917%);fill-opacity:1;" d="M 120.898438 300.515625 C 126.492188 300.515625 131.023438 295.980469 131.023438 290.390625 C 131.023438 284.800781 126.492188 280.265625 120.898438 280.265625 C 115.308594 280.265625 110.773438 284.800781 110.773438 290.390625 C 110.773438 295.980469 115.308594 300.515625 120.898438 300.515625 Z M 120.898438 300.515625 "/></g><g clip-rule="nonzero" clip-path="url(#clip28)"><path style=" stroke:none;fill-rule:nonzero;fill:rgb(75.289917%,75.289917%,75.289917%);fill-opacity:1;" d="M 147.53125 288.804688 C 152.085938 288.804688 155.78125 285.109375 155.78125 280.554688 C 155.78125 275.996094 152.085938 272.304688 147.53125 272.304688 C 142.976562 272.304688 139.28125 275.996094 139.28125 280.554688 C 139.28125 285.109375 142.976562 288.804688 147.53125 288.804688 Z M 147.53125 288.804688 "/></g><g clip-rule="nonzero" clip-path="url(#clip29)"><path style=" stroke:none;fill-rule:nonzero;fill:rgb(75.289917%,75.289917%,75.289917%);fill-opacity:1;" d="M 180.1875 260.421875 C 183.085938 260.421875 185.4375 258.070312 185.4375 255.171875 C 185.4375 252.273438 183.085938 249.921875 180.1875 249.921875 C 177.285156 249.921875 174.9375 252.273438 174.9375 255.171875 C 174.9375 258.070312 177.285156 260.421875 180.1875 260.421875 Z M 180.1875 260.421875 "/></g><g clip-rule="nonzero" clip-path="url(#clip30)"><path style=" stroke:none;fill-rule:nonzero;fill:rgb(75.289917%,75.289917%,75.289917%);fill-opacity:1;" d="M 165.765625 276.636719 C 169.90625 276.636719 173.265625 273.28125 173.265625 269.136719 C 173.265625 264.996094 169.90625 261.636719 165.765625 261.636719 C 161.621094 261.636719 158.265625 264.996094 158.265625 269.136719 C 158.265625 273.28125 161.621094 276.636719 165.765625 276.636719 Z M 165.765625 276.636719 "/></g><g clip-rule="nonzero" clip-path="url(#clip31)"><path style=" stroke:none;fill-rule:nonzero;fill:rgb(75.289917%,75.289917%,75.289917%);fill-opacity:1;" d="M 170.964844 243.984375 C 173.863281 243.984375 176.214844 241.636719 176.214844 238.734375 C 176.214844 235.835938 173.863281 233.484375 170.964844 233.484375 C 168.066406 233.484375 165.714844 235.835938 165.714844 238.734375 C 165.714844 241.636719 168.066406 243.984375 170.964844 243.984375 Z M 170.964844 243.984375 "/></g><g clip-rule="nonzero" clip-path="url(#clip32)"><path style=" stroke:none;fill-rule:nonzero;fill:rgb(75.289917%,75.289917%,75.289917%);fill-opacity:1;" d="M 152.539062 253.09375 C 155.851562 253.09375 158.539062 250.410156 158.539062 247.09375 C 158.539062 243.78125 155.851562 241.09375 152.539062 241.09375 C 149.222656 241.09375 146.539062 243.78125 146.539062 247.09375 C 146.539062 250.410156 149.222656 253.09375 152.539062 253.09375 Z M 152.539062 253.09375 "/></g><g clip-rule="nonzero" clip-path="url(#clip33)"><path style=" stroke:none;fill-rule:nonzero;fill:rgb(75.289917%,75.289917%,75.289917%);fill-opacity:1;" d="M 126.101562 264.917969 C 131.484375 264.917969 135.851562 260.550781 135.851562 255.167969 C 135.851562 249.78125 131.484375 245.417969 126.101562 245.417969 C 120.71875 245.417969 116.351562 249.78125 116.351562 255.167969 C 116.351562 260.550781 120.71875 264.917969 126.101562 264.917969 Z M 126.101562 264.917969 "/></g><g clip-rule="nonzero" clip-path="url(#clip34)"><path style=" stroke:none;fill-rule:nonzero;fill:rgb(75.289917%,75.289917%,75.289917%);fill-opacity:1;" d="M 92.058594 272.09375 C 98.269531 272.09375 103.308594 267.058594 103.308594 260.84375 C 103.308594 254.632812 98.269531 249.59375 92.058594 249.59375 C 85.84375 249.59375 80.808594 254.632812 80.808594 260.84375 C 80.808594 267.058594 85.84375 272.09375 92.058594 272.09375 Z M 92.058594 272.09375 "/></g><g clip-rule="nonzero" clip-path="url(#clip35)"><path style=" stroke:none;fill-rule:nonzero;fill:rgb(75.289917%,75.289917%,75.289917%);fill-opacity:1;" d="M 55.675781 269.28125 C 62.71875 269.28125 68.425781 263.570312 68.425781 256.53125 C 68.425781 249.488281 62.71875 243.78125 55.675781 243.78125 C 48.636719 243.78125 42.925781 249.488281 42.925781 256.53125 C 42.925781 263.570312 48.636719 269.28125 55.675781 269.28125 Z M 55.675781 269.28125 "/></g><g clip-rule="nonzero" clip-path="url(#clip36)"><path style=" stroke:none;fill-rule:nonzero;fill:rgb(75.289917%,75.289917%,75.289917%);fill-opacity:1;" d="M 14.238281 257.054688 C 22.109375 257.054688 28.488281 250.675781 28.488281 242.804688 C 28.488281 234.9375 22.109375 228.554688 14.238281 228.554688 C 6.367188 228.554688 -0.0117188 234.9375 -0.0117188 242.804688 C -0.0117188 250.675781 6.367188 257.054688 14.238281 257.054688 Z M 14.238281 257.054688 "/></g><g style="fill:rgb(75.289917%,75.289917%,75.289917%);fill-opacity:1;"><g transform="translate(94.351566, 209.174254)"><path style="stroke:none;" d="M 55.40625 -63.421875 C 53.207031 -65.910156 50.273438 -67.925781 46.609375 -69.46875 C 42.941406 -71.007812 38.765625 -71.78125 34.078125 -71.78125 C 27.191406 -71.78125 22.171875 -70.476562 19.015625 -67.875 C 15.867188 -65.269531 14.296875 -61.734375 14.296875 -57.265625 C 14.296875 -54.921875 14.710938 -53 15.546875 -51.5 C 16.390625 -50 17.691406 -48.695312 19.453125 -47.59375 C 21.210938 -46.5 23.46875 -45.546875 26.21875 -44.734375 C 28.96875 -43.929688 32.207031 -43.125 35.9375 -42.3125 C 40.113281 -41.4375 43.867188 -40.445312 47.203125 -39.34375 C 50.546875 -38.25 53.390625 -36.875 55.734375 -35.21875 C 58.078125 -33.570312 59.867188 -31.578125 61.109375 -29.234375 C 62.359375 -26.890625 62.984375 -23.960938 62.984375 -20.453125 C 62.984375 -16.859375 62.285156 -13.738281 60.890625 -11.09375 C 59.503906 -8.457031 57.5625 -6.257812 55.0625 -4.5 C 52.570312 -2.75 49.601562 -1.453125 46.15625 -0.609375 C 42.71875 0.234375 38.945312 0.65625 34.84375 0.65625 C 22.75 0.65625 12.304688 -3.113281 3.515625 -10.65625 L 7.359375 -16.921875 C 8.753906 -15.460938 10.421875 -14.070312 12.359375 -12.75 C 14.304688 -11.425781 16.46875 -10.269531 18.84375 -9.28125 C 21.226562 -8.289062 23.773438 -7.519531 26.484375 -6.96875 C 29.203125 -6.425781 32.0625 -6.15625 35.0625 -6.15625 C 41.289062 -6.15625 46.144531 -7.269531 49.625 -9.5 C 53.101562 -11.738281 54.84375 -15.128906 54.84375 -19.671875 C 54.84375 -22.085938 54.347656 -24.117188 53.359375 -25.765625 C 52.378906 -27.421875 50.898438 -28.851562 48.921875 -30.0625 C 46.941406 -31.269531 44.484375 -32.3125 41.546875 -33.1875 C 38.617188 -34.070312 35.210938 -34.953125 31.328125 -35.828125 C 27.222656 -36.785156 23.628906 -37.773438 20.546875 -38.796875 C 17.472656 -39.828125 14.875 -41.109375 12.75 -42.640625 C 10.625 -44.179688 9.03125 -46.03125 7.96875 -48.1875 C 6.90625 -50.351562 6.375 -53.015625 6.375 -56.171875 C 6.375 -59.765625 7.050781 -62.96875 8.40625 -65.78125 C 9.757812 -68.601562 11.679688 -70.945312 14.171875 -72.8125 C 16.671875 -74.6875 19.601562 -76.117188 22.96875 -77.109375 C 26.34375 -78.097656 30.082031 -78.59375 34.1875 -78.59375 C 39.382812 -78.59375 44.015625 -77.804688 48.078125 -76.234375 C 52.148438 -74.660156 55.835938 -72.441406 59.140625 -69.578125 Z M 55.40625 -63.421875 "/></g></g><g style="fill:rgb(75.289917%,75.289917%,75.289917%);fill-opacity:1;"><g transform="translate(164.627485, 208.819717)"><path style="stroke:none;" d="M 45.53125 0 L 39 -6.859375 C 36.757812 -4.460938 34.191406 -2.585938 31.296875 -1.234375 C 28.398438 0.117188 25.25 0.796875 21.84375 0.796875 C 19.351562 0.796875 17.003906 0.425781 14.796875 -0.3125 C 12.585938 -1.0625 10.671875 -2.113281 9.046875 -3.46875 C 7.429688 -4.820312 6.144531 -6.441406 5.1875 -8.328125 C 4.226562 -10.222656 3.75 -12.3125 3.75 -14.59375 C 3.75 -16.507812 4.066406 -18.265625 4.703125 -19.859375 C 5.335938 -21.453125 6.210938 -22.925781 7.328125 -24.28125 C 8.453125 -25.632812 9.726562 -26.894531 11.15625 -28.0625 C 12.59375 -29.238281 14.109375 -30.359375 15.703125 -31.421875 C 14.273438 -32.960938 13.066406 -34.34375 12.078125 -35.5625 C 11.097656 -36.789062 10.300781 -37.921875 9.6875 -38.953125 C 9.070312 -39.992188 8.628906 -40.992188 8.359375 -41.953125 C 8.097656 -42.910156 7.96875 -43.894531 7.96875 -44.90625 C 7.96875 -46.65625 8.328125 -48.285156 9.046875 -49.796875 C 9.765625 -51.316406 10.757812 -52.632812 12.03125 -53.75 C 13.3125 -54.863281 14.816406 -55.738281 16.546875 -56.375 C 18.273438 -57.019531 20.148438 -57.34375 22.171875 -57.34375 C 24.035156 -57.34375 25.765625 -57.078125 27.359375 -56.546875 C 28.953125 -56.015625 30.34375 -55.253906 31.53125 -54.265625 C 32.726562 -53.285156 33.671875 -52.101562 34.359375 -50.71875 C 35.054688 -49.332031 35.40625 -47.816406 35.40625 -46.171875 C 35.40625 -44.523438 35.070312 -43.023438 34.40625 -41.671875 C 33.75 -40.316406 32.859375 -39.023438 31.734375 -37.796875 C 30.617188 -36.578125 29.316406 -35.410156 27.828125 -34.296875 C 26.335938 -33.179688 24.742188 -32.0625 23.046875 -30.9375 L 38.921875 -14.359375 C 39.984375 -16.378906 40.816406 -18.570312 41.421875 -20.9375 C 42.035156 -23.300781 42.34375 -25.785156 42.34375 -28.390625 L 46.96875 -28.390625 C 46.914062 -25.097656 46.476562 -21.988281 45.65625 -19.0625 C 44.832031 -16.132812 43.648438 -13.445312 42.109375 -11 L 52.71875 0 Z M 22.40625 -3.59375 C 25.125 -3.59375 27.625 -4.160156 29.90625 -5.296875 C 32.1875 -6.441406 34.207031 -8.023438 35.96875 -10.046875 L 18.828125 -28.15625 C 16.003906 -26.1875 13.660156 -24.125 11.796875 -21.96875 C 9.941406 -19.8125 9.015625 -17.300781 9.015625 -14.4375 C 9.015625 -12.675781 9.398438 -11.117188 10.171875 -9.765625 C 10.941406 -8.410156 11.960938 -7.265625 13.234375 -6.328125 C 14.515625 -5.398438 15.953125 -4.710938 17.546875 -4.265625 C 19.140625 -3.816406 20.757812 -3.59375 22.40625 -3.59375 Z M 13 -45.0625 C 13 -44.425781 13.09375 -43.785156 13.28125 -43.140625 C 13.46875 -42.503906 13.828125 -41.773438 14.359375 -40.953125 C 14.890625 -40.128906 15.59375 -39.171875 16.46875 -38.078125 C 17.34375 -36.992188 18.5 -35.707031 19.9375 -34.21875 C 23.019531 -36.238281 25.53125 -38.140625 27.46875 -39.921875 C 29.414062 -41.703125 30.390625 -43.734375 30.390625 -46.015625 C 30.390625 -48.085938 29.617188 -49.785156 28.078125 -51.109375 C 26.535156 -52.441406 24.566406 -53.109375 22.171875 -53.109375 C 20.835938 -53.109375 19.613281 -52.894531 18.5 -52.46875 C 17.382812 -52.050781 16.414062 -51.46875 15.59375 -50.71875 C 14.769531 -49.976562 14.128906 -49.128906 13.671875 -48.171875 C 13.222656 -47.210938 13 -46.175781 13 -45.0625 Z M 13 -45.0625 "/></g></g></g></svg>